<svg width="1512" height="982" viewBox="0 0 1512 982" fill="none" xmlns="http://www.w3.org/2000/svg">
  <g opacity="0.6">
    <path d="M92.9225 -6.95567C92.9225 -80.3463 158.404 -140 239.384 -140C320.365 -140 385.846 -80.3463 385.846 -6.95567C385.846 29.6899 369.542 53.8174 343.16 68.8449C322.525 80.5988 295.69 86.8004 265.595 88.9618C312.863 78.3005 347.991 39.4611 347.991 -6.95567C347.991 -61.6179 299.274 -105.772 239.384 -105.772C179.494 -105.772 130.777 -61.6179 130.777 -6.95567C130.777 39.4611 165.905 78.3005 213.173 88.9618C183.078 86.8004 156.243 80.5988 135.608 68.8449C109.226 53.8174 92.9225 29.6899 92.9225 -6.95567ZM345.991 -6.95567C345.991 42.1755 305.639 82.8795 253.239 89.0509C257.819 87.1942 262.217 84.4867 266.383 81.1394C274.605 74.533 281.976 65.3945 288.147 55.2264C300.476 34.9126 308.137 10.2804 308.137 -6.95567C308.137 -41.6096 277.263 -69.5436 239.384 -69.5436C201.505 -69.5436 170.631 -41.6096 170.631 -6.95567C170.631 10.2804 178.292 34.9126 190.621 55.2264C196.792 65.3945 204.163 74.533 212.385 81.1394C216.551 84.4867 220.949 87.1942 225.53 89.0509C173.129 82.8795 132.777 42.1755 132.777 -6.95567C132.777 -60.3381 180.415 -103.772 239.384 -103.772C298.354 -103.772 345.991 -60.3381 345.991 -6.95567ZM234.42 89.476C227.147 88.3523 220.156 84.8176 213.638 79.5803C205.649 73.1609 198.42 64.2229 192.331 54.1888C180.138 34.0981 172.631 9.82225 172.631 -6.95567C172.631 -40.3298 202.426 -67.5436 239.384 -67.5436C276.342 -67.5436 306.137 -40.3298 306.137 -6.95567C306.137 9.82225 298.631 34.0981 286.438 54.1888C280.348 64.2229 273.12 73.1609 265.13 79.5803C258.612 84.8176 251.622 88.3523 244.348 89.476C244.846 88.9898 245.328 88.4429 245.794 87.8483C247.692 85.4251 249.484 82.0006 251.168 77.9281C254.538 69.7721 257.559 58.792 260.087 47.4216C265.14 24.6972 268.282 0.158096 268.282 -6.95567C268.282 -21.6014 255.252 -33.3154 239.384 -33.3154C223.516 -33.3154 210.486 -21.6014 210.486 -6.95567C210.486 0.158096 213.628 24.6972 218.681 47.4216C221.209 58.792 224.23 69.7721 227.601 77.9281C229.284 82.0006 231.077 85.4251 232.974 87.8483C233.44 88.4429 233.922 88.9898 234.42 89.476ZM212.486 -6.95567C212.486 -20.3215 224.437 -31.3154 239.384 -31.3154C254.331 -31.3154 266.282 -20.3215 266.282 -6.95567C266.282 -0.0636673 263.179 24.3053 258.135 46.9874C255.615 58.3203 252.624 69.1681 249.319 77.1642C247.665 81.1678 245.954 84.4004 244.219 86.6152C242.46 88.8622 240.837 89.8604 239.384 89.8604C237.931 89.8604 236.309 88.8622 234.549 86.6152C232.814 84.4004 231.104 81.1678 229.449 77.1642C226.144 69.1681 223.153 58.3203 220.633 46.9874C215.589 24.3053 212.486 -0.0636673 212.486 -6.95567Z" stroke="#007D3A" stroke-opacity="0.25" stroke-width="2"/>
    <path d="M-202 -6.95567C-202 -80.3463 -136.519 -140 -55.5383 -140C25.4422 -140 90.9233 -80.3463 90.9233 -6.95567C90.9233 29.6899 74.6201 53.8174 48.2379 68.8449C27.6029 80.5988 0.767647 86.8004 -29.3276 88.9618C17.9407 78.3005 53.0689 39.4611 53.0689 -6.95567C53.0689 -61.6179 4.35188 -105.772 -55.5383 -105.772C-115.428 -105.772 -164.145 -61.6179 -164.145 -6.95567C-164.145 39.4611 -129.017 78.3005 -81.7489 88.9618C-111.844 86.8004 -138.679 80.5988 -159.314 68.8449C-185.697 53.8174 -202 29.6899 -202 -6.95567ZM51.0689 -6.95567C51.0689 42.1755 10.7164 82.8795 -41.6839 89.0509C-37.1035 87.1942 -32.7056 84.4867 -28.5395 81.1394C-20.3173 74.533 -12.9461 65.3945 -6.77504 55.2264C5.55351 34.9126 13.2144 10.2804 13.2144 -6.95567C13.2144 -41.6096 -17.6591 -69.5436 -55.5383 -69.5436C-93.4174 -69.5436 -124.291 -41.6096 -124.291 -6.95567C-124.291 10.2804 -116.63 34.9126 -104.301 55.2264C-98.1304 65.3945 -90.7592 74.533 -82.537 81.1394C-78.3709 84.4867 -73.973 87.1942 -69.3927 89.0509C-121.793 82.8795 -162.145 42.1755 -162.145 -6.95567C-162.145 -60.3381 -114.508 -103.772 -55.5383 -103.772C3.43114 -103.772 51.0689 -60.3381 51.0689 -6.95567ZM-60.502 89.476C-67.7758 88.3523 -74.766 84.8176 -81.2843 79.5803C-89.2737 73.1609 -96.502 64.2229 -102.592 54.1888C-114.785 34.0981 -122.291 9.82225 -122.291 -6.95567C-122.291 -40.3298 -92.4966 -67.5436 -55.5383 -67.5436C-18.5799 -67.5436 11.2144 -40.3298 11.2144 -6.95567C11.2144 9.82225 3.70828 34.0981 -8.48479 54.1888C-14.5746 64.2229 -21.8028 73.1609 -29.7922 79.5803C-36.3105 84.8176 -43.3007 88.3523 -50.5746 89.476C-50.0762 88.9898 -49.5941 88.4429 -49.1285 87.8483C-47.2308 85.4251 -45.4379 82.0006 -43.7549 77.9281C-40.3841 69.7721 -37.3636 58.792 -34.8351 47.4216C-29.7819 24.6972 -26.6401 0.158096 -26.6401 -6.95567C-26.6401 -21.6014 -39.6702 -33.3154 -55.5383 -33.3154C-71.4063 -33.3154 -84.4364 -21.6014 -84.4364 -6.95567C-84.4364 0.158096 -81.2946 24.6972 -76.2414 47.4216C-73.7129 58.792 -70.6924 69.7721 -67.3217 77.9281C-65.6386 82.0006 -63.8457 85.4251 -61.948 87.8483C-61.4824 88.4429 -61.0004 88.9898 -60.502 89.476ZM-82.4364 -6.95567C-82.4364 -20.3215 -70.4856 -31.3154 -55.5383 -31.3154C-40.5909 -31.3154 -28.6401 -20.3215 -28.6401 -6.95567C-28.6401 -0.0636673 -31.7436 24.3053 -36.7874 46.9874C-39.3076 58.3203 -42.2986 69.1681 -45.6032 77.1642C-47.2578 81.1678 -48.9686 84.4004 -50.7031 86.6152C-52.4628 88.8622 -54.0851 89.8604 -55.5383 89.8604C-56.9914 89.8604 -58.6137 88.8622 -60.3734 86.6152C-62.1079 84.4004 -63.8187 81.1678 -65.4733 77.1642C-68.7779 69.1681 -71.769 58.3203 -74.2891 46.9874C-79.3329 24.3053 -82.4364 -0.0636673 -82.4364 -6.95567Z" stroke="#007D3A" stroke-opacity="0.25" stroke-width="2"/>
    <path d="M387.845 -6.95567C387.845 -80.3463 453.326 -140 534.306 -140C615.287 -140 680.768 -80.3463 680.768 -6.95567C680.768 29.6899 664.465 53.8174 638.083 68.8449C617.448 80.5988 590.612 86.8004 560.517 88.9618C607.785 78.3005 642.914 39.4611 642.914 -6.95567C642.914 -61.6179 594.197 -105.772 534.306 -105.772C474.416 -105.772 425.699 -61.6179 425.699 -6.95567C425.699 39.4611 460.827 78.3005 508.096 88.9618C478.001 86.8004 451.165 80.5988 430.53 68.8449C404.148 53.8174 387.845 29.6899 387.845 -6.95567ZM640.914 -6.95567C640.914 42.1755 600.561 82.8795 548.161 89.0509C552.741 87.1942 557.139 84.4867 561.305 81.1394C569.527 74.533 576.899 65.3945 583.07 55.2264C595.398 34.9126 603.059 10.2804 603.059 -6.95567C603.059 -41.6096 572.186 -69.5436 534.306 -69.5436C496.427 -69.5436 465.554 -41.6096 465.554 -6.95567C465.554 10.2804 473.215 34.9126 485.543 55.2264C491.714 65.3945 499.086 74.533 507.308 81.1394C511.474 84.4867 515.872 87.1942 520.452 89.0509C468.052 82.8795 427.699 42.1755 427.699 -6.95567C427.699 -60.3381 475.337 -103.772 534.306 -103.772C593.276 -103.772 640.914 -60.3381 640.914 -6.95567ZM529.343 89.476C522.069 88.3523 515.079 84.8176 508.56 79.5803C500.571 73.1609 493.343 64.2229 487.253 54.1888C475.06 34.0981 467.554 9.82225 467.554 -6.95567C467.554 -40.3298 497.348 -67.5436 534.306 -67.5436C571.265 -67.5436 601.059 -40.3298 601.059 -6.95567C601.059 9.82225 593.553 34.0981 581.36 54.1888C575.27 64.2229 568.042 73.1609 560.052 79.5803C553.534 84.8176 546.544 88.3523 539.27 89.476C539.769 88.9898 540.251 88.4429 540.716 87.8483C542.614 85.4251 544.407 82.0006 546.09 77.9281C549.461 69.7721 552.481 58.792 555.01 47.4216C560.063 24.6972 563.205 0.158096 563.205 -6.95567C563.205 -21.6014 550.175 -33.3154 534.306 -33.3154C518.438 -33.3154 505.408 -21.6014 505.408 -6.95567C505.408 0.158096 508.55 24.6972 513.603 47.4216C516.132 58.792 519.152 69.7721 522.523 77.9281C524.206 82.0006 525.999 85.4251 527.897 87.8483C528.362 88.4429 528.844 88.9898 529.343 89.476ZM507.408 -6.95567C507.408 -20.3215 519.359 -31.3154 534.306 -31.3154C549.254 -31.3154 561.205 -20.3215 561.205 -6.95567C561.205 -0.0636673 558.101 24.3053 553.057 46.9874C550.537 58.3203 547.546 69.1681 544.242 77.1642C542.587 81.1678 540.876 84.4004 539.142 86.6152C537.382 88.8622 535.76 89.8604 534.306 89.8604C532.853 89.8604 531.231 88.8622 529.471 86.6152C527.737 84.4004 526.026 81.1678 524.371 77.1642C521.067 69.1681 518.076 58.3203 515.556 46.9874C510.512 24.3053 507.408 -0.0636673 507.408 -6.95567Z" stroke="#007D3A" stroke-opacity="0.25" stroke-width="2"/>
    <path d="M682.769 -6.95567C682.769 -80.3463 748.25 -140 829.23 -140C910.211 -140 975.692 -80.3463 975.692 -6.95567C975.692 29.6899 959.389 53.8174 933.006 68.8449C912.371 80.5988 885.536 86.8004 855.441 88.9618C902.709 78.3005 937.837 39.4611 937.837 -6.95567C937.837 -61.6179 889.12 -105.772 829.23 -105.772C769.34 -105.772 720.623 -61.6179 720.623 -6.95567C720.623 39.4611 755.751 78.3005 803.02 88.9618C772.924 86.8004 746.089 80.5988 725.454 68.8449C699.072 53.8174 682.769 29.6899 682.769 -6.95567ZM935.837 -6.95567C935.837 42.1755 895.485 82.8795 843.085 89.0509C847.665 87.1942 852.063 84.4867 856.229 81.1394C864.451 74.533 871.822 65.3945 877.994 55.2264C890.322 34.9126 897.983 10.2804 897.983 -6.95567C897.983 -41.6096 867.109 -69.5436 829.23 -69.5436C791.351 -69.5436 760.478 -41.6096 760.478 -6.95567C760.478 10.2804 768.139 34.9126 780.467 55.2264C786.638 65.3945 794.009 74.533 802.232 81.1394C806.398 84.4867 810.796 87.1942 815.376 89.0509C762.976 82.8795 722.623 42.1755 722.623 -6.95567C722.623 -60.3381 770.261 -103.772 829.23 -103.772C888.2 -103.772 935.837 -60.3381 935.837 -6.95567ZM824.267 89.476C816.993 88.3523 810.003 84.8176 803.484 79.5803C795.495 73.1609 788.267 64.2229 782.177 54.1888C769.984 34.0981 762.478 9.82225 762.478 -6.95567C762.478 -40.3298 792.272 -67.5436 829.23 -67.5436C866.189 -67.5436 895.983 -40.3298 895.983 -6.95567C895.983 9.82225 888.477 34.0981 876.284 54.1888C870.194 64.2229 862.966 73.1609 854.976 79.5803C848.458 84.8176 841.468 88.3523 834.194 89.476C834.692 88.9898 835.174 88.4429 835.64 87.8483C837.538 85.4251 839.331 82.0006 841.014 77.9281C844.384 69.7721 847.405 58.792 849.933 47.4216C854.987 24.6972 858.128 0.158096 858.128 -6.95567C858.128 -21.6014 845.098 -33.3154 829.23 -33.3154C813.362 -33.3154 800.332 -21.6014 800.332 -6.95567C800.332 0.158096 803.474 24.6972 808.527 47.4216C811.056 58.792 814.076 69.7721 817.447 77.9281C819.13 82.0006 820.923 85.4251 822.821 87.8483C823.286 88.4429 823.768 88.9898 824.267 89.476ZM802.332 -6.95567C802.332 -20.3215 814.283 -31.3154 829.23 -31.3154C844.178 -31.3154 856.128 -20.3215 856.128 -6.95567C856.128 -0.0636673 853.025 24.3053 847.981 46.9874C845.461 58.3203 842.47 69.1681 839.165 77.1642C837.511 81.1678 835.8 84.4004 834.065 86.6152C832.306 88.8622 830.683 89.8604 829.23 89.8604C827.777 89.8604 826.155 88.8622 824.395 86.6152C822.661 84.4004 820.95 81.1678 819.295 77.1642C815.991 69.1681 813 58.3203 810.479 46.9874C805.436 24.3053 802.332 -0.0636673 802.332 -6.95567Z" stroke="#007D3A" stroke-opacity="0.25" stroke-width="2"/>
    <path d="M977.691 -6.95567C977.691 -80.3463 1043.17 -140 1124.15 -140C1205.13 -140 1270.61 -80.3463 1270.61 -6.95567C1270.61 29.6899 1254.31 53.8174 1227.93 68.8449C1207.29 80.5988 1180.46 86.8004 1150.36 88.9618C1197.63 78.3005 1232.76 39.4611 1232.76 -6.95567C1232.76 -61.6179 1184.04 -105.772 1124.15 -105.772C1064.26 -105.772 1015.55 -61.6179 1015.55 -6.95567C1015.55 39.4611 1050.67 78.3005 1097.94 88.9618C1067.85 86.8004 1041.01 80.5988 1020.38 68.8449C993.995 53.8174 977.691 29.6899 977.691 -6.95567ZM1230.76 -6.95567C1230.76 42.1755 1190.41 82.8795 1138.01 89.0509C1142.59 87.1942 1146.99 84.4867 1151.15 81.1394C1159.37 74.533 1166.75 65.3945 1172.92 55.2264C1185.24 34.9126 1192.91 10.2804 1192.91 -6.95567C1192.91 -41.6096 1162.03 -69.5436 1124.15 -69.5436C1086.27 -69.5436 1055.4 -41.6096 1055.4 -6.95567C1055.4 10.2804 1063.06 34.9126 1075.39 55.2264C1081.56 65.3945 1088.93 74.533 1097.15 81.1394C1101.32 84.4867 1105.72 87.1942 1110.3 89.0509C1057.9 82.8795 1017.55 42.1755 1017.55 -6.95567C1017.55 -60.3381 1065.18 -103.772 1124.15 -103.772C1183.12 -103.772 1230.76 -60.3381 1230.76 -6.95567ZM1119.19 89.476C1111.92 88.3523 1104.93 84.8176 1098.41 79.5803C1090.42 73.1609 1083.19 64.2229 1077.1 54.1888C1064.91 34.0981 1057.4 9.82225 1057.4 -6.95567C1057.4 -40.3298 1087.19 -67.5436 1124.15 -67.5436C1161.11 -67.5436 1190.91 -40.3298 1190.91 -6.95567C1190.91 9.82225 1183.4 34.0981 1171.21 54.1888C1165.12 64.2229 1157.89 73.1609 1149.9 79.5803C1143.38 84.8176 1136.39 88.3523 1129.12 89.476C1129.62 88.9898 1130.1 88.4429 1130.56 87.8483C1132.46 85.4251 1134.25 82.0006 1135.94 77.9281C1139.31 69.7721 1142.33 58.792 1144.86 47.4216C1149.91 24.6972 1153.05 0.158096 1153.05 -6.95567C1153.05 -21.6014 1140.02 -33.3154 1124.15 -33.3154C1108.28 -33.3154 1095.25 -21.6014 1095.25 -6.95567C1095.25 0.158096 1098.4 24.6972 1103.45 47.4216C1105.98 58.792 1109 69.7721 1112.37 77.9281C1114.05 82.0006 1115.85 85.4251 1117.74 87.8483C1118.21 88.4429 1118.69 88.9898 1119.19 89.476ZM1097.25 -6.95567C1097.25 -20.3215 1109.21 -31.3154 1124.15 -31.3154C1139.1 -31.3154 1151.05 -20.3215 1151.05 -6.95567C1151.05 -0.0636673 1147.95 24.3053 1142.9 46.9874C1140.38 58.3203 1137.39 69.1681 1134.09 77.1642C1132.43 81.1678 1130.72 84.4004 1128.99 86.6152C1127.23 88.8622 1125.61 89.8604 1124.15 89.8604C1122.7 89.8604 1121.08 88.8622 1119.32 86.6152C1117.58 84.4004 1115.87 81.1678 1114.22 77.1642C1110.91 69.1681 1107.92 58.3203 1105.4 46.9874C1100.36 24.3053 1097.25 -0.0636673 1097.25 -6.95567Z" stroke="#007D3A" stroke-opacity="0.25" stroke-width="2"/>
    <path d="M1272.62 -6.95567C1272.62 -80.3463 1338.1 -140 1419.08 -140C1500.06 -140 1565.54 -80.3463 1565.54 -6.95567C1565.54 29.6899 1549.24 53.8174 1522.85 68.8449C1502.22 80.5988 1475.38 86.8004 1445.29 88.9618C1492.56 78.3005 1527.68 39.4611 1527.68 -6.95567C1527.68 -61.6179 1478.97 -105.772 1419.08 -105.772C1359.19 -105.772 1310.47 -61.6179 1310.47 -6.95567C1310.47 39.4611 1345.6 78.3005 1392.87 88.9618C1362.77 86.8004 1335.94 80.5988 1315.3 68.8449C1288.92 53.8174 1272.62 29.6899 1272.62 -6.95567ZM1525.68 -6.95567C1525.68 42.1755 1485.33 82.8795 1432.93 89.0509C1437.51 87.1942 1441.91 84.4867 1446.08 81.1394C1454.3 74.533 1461.67 65.3945 1467.84 55.2264C1480.17 34.9126 1487.83 10.2804 1487.83 -6.95567C1487.83 -41.6096 1456.96 -69.5436 1419.08 -69.5436C1381.2 -69.5436 1350.32 -41.6096 1350.32 -6.95567C1350.32 10.2804 1357.99 34.9126 1370.31 55.2264C1376.49 65.3945 1383.86 74.533 1392.08 81.1394C1396.24 84.4867 1400.64 87.1942 1405.22 89.0509C1352.82 82.8795 1312.47 42.1755 1312.47 -6.95567C1312.47 -60.3381 1360.11 -103.772 1419.08 -103.772C1478.05 -103.772 1525.68 -60.3381 1525.68 -6.95567ZM1414.11 89.476C1406.84 88.3523 1399.85 84.8176 1393.33 79.5803C1385.34 73.1609 1378.11 64.2229 1372.02 54.1888C1359.83 34.0981 1352.32 9.82225 1352.32 -6.95567C1352.32 -40.3298 1382.12 -67.5436 1419.08 -67.5436C1456.04 -67.5436 1485.83 -40.3298 1485.83 -6.95567C1485.83 9.82225 1478.32 34.0981 1466.13 54.1888C1460.04 64.2229 1452.81 73.1609 1444.82 79.5803C1438.31 84.8176 1431.32 88.3523 1424.04 89.476C1424.54 88.9898 1425.02 88.4429 1425.49 87.8483C1427.38 85.4251 1429.18 82.0006 1430.86 77.9281C1434.23 69.7721 1437.25 58.792 1439.78 47.4216C1444.83 24.6972 1447.98 0.158096 1447.98 -6.95567C1447.98 -21.6014 1434.95 -33.3154 1419.08 -33.3154C1403.21 -33.3154 1390.18 -21.6014 1390.18 -6.95567C1390.18 0.158096 1393.32 24.6972 1398.37 47.4216C1400.9 58.792 1403.92 69.7721 1407.29 77.9281C1408.98 82.0006 1410.77 85.4251 1412.67 87.8483C1413.13 88.4429 1413.62 88.9898 1414.11 89.476ZM1392.18 -6.95567C1392.18 -20.3215 1404.13 -31.3154 1419.08 -31.3154C1434.02 -31.3154 1445.98 -20.3215 1445.98 -6.95567C1445.98 -0.0636673 1442.87 24.3053 1437.83 46.9874C1435.31 58.3203 1432.32 69.1681 1429.01 77.1642C1427.36 81.1678 1425.65 84.4004 1423.91 86.6152C1422.15 88.8622 1420.53 89.8604 1419.08 89.8604C1417.62 89.8604 1416 88.8622 1414.24 86.6152C1412.51 84.4004 1410.8 81.1678 1409.14 77.1642C1405.84 69.1681 1402.85 58.3203 1400.33 46.9874C1395.28 24.3053 1392.18 -0.0636673 1392.18 -6.95567Z" stroke="#007D3A" stroke-opacity="0.25" stroke-width="2"/>
    <path d="M240.384 199.472C240.384 126.081 305.865 66.4279 386.846 66.4279C467.826 66.4279 533.307 126.081 533.307 199.472C533.307 236.118 517.004 260.245 490.622 275.273C469.987 287.027 443.151 293.228 413.056 295.39C460.325 284.728 495.453 245.889 495.453 199.472C495.453 144.81 446.736 100.656 386.846 100.656C326.955 100.656 278.238 144.81 278.238 199.472C278.238 245.889 313.367 284.728 360.635 295.39C330.54 293.228 303.704 287.027 283.069 275.273C256.687 260.245 240.384 236.118 240.384 199.472ZM493.453 199.472C493.453 248.603 453.1 289.307 400.7 295.479C405.28 293.622 409.678 290.914 413.844 287.567C422.066 280.961 429.438 271.822 435.609 261.654C447.937 241.34 455.598 216.708 455.598 199.472C455.598 164.818 424.725 136.884 386.846 136.884C348.966 136.884 318.093 164.818 318.093 199.472C318.093 216.708 325.754 241.34 338.082 261.654C344.253 271.822 351.625 280.961 359.847 287.567C364.013 290.914 368.411 293.622 372.991 295.479C320.591 289.307 280.238 248.603 280.238 199.472C280.238 146.09 327.876 102.656 386.846 102.656C445.815 102.656 493.453 146.09 493.453 199.472ZM381.882 295.904C374.608 294.78 367.618 291.245 361.1 286.008C353.11 279.589 345.882 270.651 339.792 260.617C327.599 240.526 320.093 216.25 320.093 199.472C320.093 166.098 349.887 138.884 386.846 138.884C423.804 138.884 453.598 166.098 453.598 199.472C453.598 216.25 446.092 240.526 433.899 260.617C427.809 270.651 420.581 279.589 412.592 286.008C406.073 291.245 399.083 294.78 391.809 295.904C392.308 295.418 392.79 294.871 393.255 294.276C395.153 291.853 396.946 288.428 398.629 284.356C402 276.2 405.02 265.22 407.549 253.849C412.602 231.125 415.744 206.586 415.744 199.472C415.744 184.826 402.714 173.112 386.846 173.112C370.977 173.112 357.947 184.826 357.947 199.472C357.947 206.586 361.089 231.125 366.142 253.849C368.671 265.22 371.691 276.2 375.062 284.356C376.745 288.428 378.538 291.853 380.436 294.276C380.901 294.871 381.383 295.418 381.882 295.904ZM359.947 199.472C359.947 186.106 371.898 175.112 386.846 175.112C401.793 175.112 413.744 186.106 413.744 199.472C413.744 206.364 410.64 230.733 405.596 253.415C403.076 264.748 400.085 275.596 396.781 283.592C395.126 287.595 393.415 290.828 391.681 293.043C389.921 295.29 388.299 296.288 386.846 296.288C385.392 296.288 383.77 295.29 382.01 293.043C380.276 290.828 378.565 287.595 376.911 283.592C373.606 275.596 370.615 264.748 368.095 253.415C363.051 230.733 359.947 206.364 359.947 199.472Z" stroke="#007D3A" stroke-opacity="0.25" stroke-width="2"/>
    <path d="M-54.5384 199.472C-54.5384 126.081 10.9427 66.4279 91.9232 66.4279C172.904 66.4279 238.385 126.081 238.385 199.472C238.385 236.118 222.081 260.245 195.699 275.273C175.064 287.027 148.229 293.228 118.134 295.39C165.402 284.728 200.53 245.889 200.53 199.472C200.53 144.81 151.813 100.656 91.9232 100.656C32.033 100.656 -16.684 144.81 -16.684 199.472C-16.684 245.889 18.4442 284.728 65.7125 295.39C35.6173 293.228 8.78206 287.027 -11.853 275.273C-38.2351 260.245 -54.5384 236.118 -54.5384 199.472ZM198.53 199.472C198.53 248.603 158.178 289.307 105.778 295.479C110.358 293.622 114.756 290.914 118.922 287.567C127.144 280.961 134.515 271.822 140.686 261.654C153.015 241.34 160.676 216.708 160.676 199.472C160.676 164.818 129.802 136.884 91.9232 136.884C54.0441 136.884 23.1705 164.818 23.1705 199.472C23.1705 216.708 30.8314 241.34 43.1599 261.654C49.331 271.822 56.7023 280.961 64.9244 287.567C69.0905 290.914 73.4884 293.622 78.0688 295.479C25.6685 289.307 -14.6839 248.603 -14.6839 199.472C-14.6839 146.09 32.9538 102.656 91.9232 102.656C150.893 102.656 198.53 146.09 198.53 199.472ZM86.9595 295.904C79.6856 294.78 72.6954 291.245 66.1771 286.008C58.1877 279.589 50.9595 270.651 44.8697 260.617C32.6766 240.526 25.1705 216.25 25.1705 199.472C25.1705 166.098 54.9648 138.884 91.9232 138.884C128.882 138.884 158.676 166.098 158.676 199.472C158.676 216.25 151.17 240.526 138.977 260.617C132.887 270.651 125.659 279.589 117.669 286.008C111.151 291.245 104.161 294.78 96.8869 295.904C97.3853 295.418 97.8673 294.871 98.3329 294.276C100.231 291.853 102.023 288.428 103.707 284.356C107.077 276.2 110.098 265.22 112.626 253.849C117.68 231.125 120.821 206.586 120.821 199.472C120.821 184.826 107.791 173.112 91.9232 173.112C76.0551 173.112 63.025 184.826 63.025 199.472C63.025 206.586 66.1668 231.125 71.22 253.849C73.7485 265.22 76.7691 276.2 80.1398 284.356C81.8229 288.428 83.6157 291.853 85.5134 294.276C85.979 294.871 86.4611 295.418 86.9595 295.904ZM65.025 199.472C65.025 186.106 76.9758 175.112 91.9232 175.112C106.871 175.112 118.821 186.106 118.821 199.472C118.821 206.364 115.718 230.733 110.674 253.415C108.154 264.748 105.163 275.596 101.858 283.592C100.204 287.595 98.4928 290.828 96.7583 293.043C94.9987 295.29 93.3764 296.288 91.9232 296.288C90.47 296.288 88.8477 295.29 87.088 293.043C85.3535 290.828 83.6427 287.595 81.9881 283.592C78.6835 275.596 75.6925 264.748 73.1724 253.415C68.1285 230.733 65.025 206.364 65.025 199.472Z" stroke="#007D3A" stroke-opacity="0.25" stroke-width="2"/>
    <path d="M535.307 199.472C535.307 126.081 600.788 66.4279 681.769 66.4279C762.749 66.4279 828.23 126.081 828.23 199.472C828.23 236.118 811.927 260.245 785.545 275.273C764.91 287.027 738.075 293.228 707.979 295.39C755.248 284.728 790.376 245.889 790.376 199.472C790.376 144.81 741.659 100.656 681.769 100.656C621.878 100.656 573.161 144.81 573.161 199.472C573.161 245.889 608.29 284.728 655.558 295.39C625.463 293.228 598.628 287.027 577.992 275.273C551.61 260.245 535.307 236.118 535.307 199.472ZM788.376 199.472C788.376 248.603 748.023 289.307 695.623 295.479C700.203 293.622 704.601 290.914 708.767 287.567C716.99 280.961 724.361 271.822 730.532 261.654C742.86 241.34 750.521 216.708 750.521 199.472C750.521 164.818 719.648 136.884 681.769 136.884C643.89 136.884 613.016 164.818 613.016 199.472C613.016 216.708 620.677 241.34 633.005 261.654C639.176 271.822 646.548 280.961 654.77 287.567C658.936 290.914 663.334 293.622 667.914 295.479C615.514 289.307 575.162 248.603 575.162 199.472C575.162 146.09 622.799 102.656 681.769 102.656C740.738 102.656 788.376 146.09 788.376 199.472ZM676.805 295.904C669.531 294.78 662.541 291.245 656.023 286.008C648.033 279.589 640.805 270.651 634.715 260.617C622.522 240.526 615.016 216.25 615.016 199.472C615.016 166.098 644.81 138.884 681.769 138.884C718.727 138.884 748.521 166.098 748.521 199.472C748.521 216.25 741.015 240.526 728.822 260.617C722.732 270.651 715.504 279.589 707.515 286.008C700.996 291.245 694.006 294.78 686.732 295.904C687.231 295.418 687.713 294.871 688.178 294.276C690.076 291.853 691.869 288.428 693.552 284.356C696.923 276.2 699.943 265.22 702.472 253.849C707.525 231.125 710.667 206.586 710.667 199.472C710.667 184.826 697.637 173.112 681.769 173.112C665.901 173.112 652.87 184.826 652.87 199.472C652.87 206.586 656.012 231.125 661.066 253.849C663.594 265.22 666.615 276.2 669.985 284.356C671.668 288.428 673.461 291.853 675.359 294.276C675.824 294.871 676.307 295.418 676.805 295.904ZM654.87 199.472C654.87 186.106 666.821 175.112 681.769 175.112C696.716 175.112 708.667 186.106 708.667 199.472C708.667 206.364 705.563 230.733 700.519 253.415C697.999 264.748 695.008 275.596 691.704 283.592C690.049 287.595 688.338 290.828 686.604 293.043C684.844 295.29 683.222 296.288 681.769 296.288C680.315 296.288 678.693 295.29 676.933 293.043C675.199 290.828 673.488 287.595 671.834 283.592C668.529 275.596 665.538 264.748 663.018 253.415C657.974 230.733 654.87 206.364 654.87 199.472Z" stroke="#007D3A" stroke-opacity="0.25" stroke-width="2"/>
    <path d="M830.231 199.472C830.231 126.081 895.712 66.4279 976.692 66.4279C1057.67 66.4279 1123.15 126.081 1123.15 199.472C1123.15 236.118 1106.85 260.245 1080.47 275.273C1059.83 287.027 1033 293.228 1002.9 295.39C1050.17 284.728 1085.3 245.889 1085.3 199.472C1085.3 144.81 1036.58 100.656 976.692 100.656C916.802 100.656 868.085 144.81 868.085 199.472C868.085 245.889 903.213 284.728 950.482 295.39C920.386 293.228 893.551 287.027 872.916 275.273C846.534 260.245 830.231 236.118 830.231 199.472ZM1083.3 199.472C1083.3 248.603 1042.95 289.307 990.547 295.479C995.127 293.622 999.525 290.914 1003.69 287.567C1011.91 280.961 1019.28 271.822 1025.46 261.654C1037.78 241.34 1045.44 216.708 1045.44 199.472C1045.44 164.818 1014.57 136.884 976.692 136.884C938.813 136.884 907.94 164.818 907.94 199.472C907.94 216.708 915.6 241.34 927.929 261.654C934.1 271.822 941.471 280.961 949.693 287.567C953.86 290.914 958.257 293.622 962.838 295.479C910.438 289.307 870.085 248.603 870.085 199.472C870.085 146.09 917.723 102.656 976.692 102.656C1035.66 102.656 1083.3 146.09 1083.3 199.472ZM971.729 295.904C964.455 294.78 957.464 291.245 950.946 286.008C942.957 279.589 935.729 270.651 929.639 260.617C917.446 240.526 909.94 216.25 909.94 199.472C909.94 166.098 939.734 138.884 976.692 138.884C1013.65 138.884 1043.44 166.098 1043.44 199.472C1043.44 216.25 1035.94 240.526 1023.75 260.617C1017.66 270.651 1010.43 279.589 1002.44 286.008C995.92 291.245 988.93 294.78 981.656 295.904C982.154 295.418 982.636 294.871 983.102 294.276C985 291.853 986.793 288.428 988.476 284.356C991.846 276.2 994.867 265.22 997.395 253.849C1002.45 231.125 1005.59 206.586 1005.59 199.472C1005.59 184.826 992.56 173.112 976.692 173.112C960.824 173.112 947.794 184.826 947.794 199.472C947.794 206.586 950.936 231.125 955.989 253.849C958.518 265.22 961.538 276.2 964.909 284.356C966.592 288.428 968.385 291.853 970.282 294.276C970.748 294.871 971.23 295.418 971.729 295.904ZM949.794 199.472C949.794 186.106 961.745 175.112 976.692 175.112C991.64 175.112 1003.59 186.106 1003.59 199.472C1003.59 206.364 1000.49 230.733 995.443 253.415C992.923 264.748 989.932 275.596 986.627 283.592C984.973 287.595 983.262 290.828 981.527 293.043C979.768 295.29 978.145 296.288 976.692 296.288C975.239 296.288 973.617 295.29 971.857 293.043C970.123 290.828 968.412 287.595 966.757 283.592C963.453 275.596 960.462 264.748 957.941 253.415C952.898 230.733 949.794 206.364 949.794 199.472Z" stroke="#007D3A" stroke-opacity="0.25" stroke-width="2"/>
    <path d="M1125.15 199.472C1125.15 126.081 1190.64 66.4279 1271.62 66.4279C1352.6 66.4279 1418.08 126.081 1418.08 199.472C1418.08 236.118 1401.77 260.245 1375.39 275.273C1354.76 287.027 1327.92 293.228 1297.83 295.39C1345.1 284.728 1380.22 245.889 1380.22 199.472C1380.22 144.81 1331.51 100.656 1271.62 100.656C1211.73 100.656 1163.01 144.81 1163.01 199.472C1163.01 245.889 1198.14 284.728 1245.41 295.39C1215.31 293.228 1188.47 287.027 1167.84 275.273C1141.46 260.245 1125.15 236.118 1125.15 199.472ZM1378.22 199.472C1378.22 248.603 1337.87 289.307 1285.47 295.479C1290.05 293.622 1294.45 290.914 1298.61 287.567C1306.84 280.961 1314.21 271.822 1320.38 261.654C1332.71 241.34 1340.37 216.708 1340.37 199.472C1340.37 164.818 1309.5 136.884 1271.62 136.884C1233.74 136.884 1202.86 164.818 1202.86 199.472C1202.86 216.708 1210.52 241.34 1222.85 261.654C1229.02 271.822 1236.4 280.961 1244.62 287.567C1248.78 290.914 1253.18 293.622 1257.76 295.479C1205.36 289.307 1165.01 248.603 1165.01 199.472C1165.01 146.09 1212.65 102.656 1271.62 102.656C1330.59 102.656 1378.22 146.09 1378.22 199.472ZM1266.65 295.904C1259.38 294.78 1252.39 291.245 1245.87 286.008C1237.88 279.589 1230.65 270.651 1224.56 260.617C1212.37 240.526 1204.86 216.25 1204.86 199.472C1204.86 166.098 1234.66 138.884 1271.62 138.884C1308.57 138.884 1338.37 166.098 1338.37 199.472C1338.37 216.25 1330.86 240.526 1318.67 260.617C1312.58 270.651 1305.35 279.589 1297.36 286.008C1290.84 291.245 1283.85 294.78 1276.58 295.904C1277.08 295.418 1277.56 294.871 1278.03 294.276C1279.92 291.853 1281.72 288.428 1283.4 284.356C1286.77 276.2 1289.79 265.22 1292.32 253.849C1297.37 231.125 1300.51 206.586 1300.51 199.472C1300.51 184.826 1287.48 173.112 1271.62 173.112C1255.75 173.112 1242.72 184.826 1242.72 199.472C1242.72 206.586 1245.86 231.125 1250.91 253.849C1253.44 265.22 1256.46 276.2 1259.83 284.356C1261.52 288.428 1263.31 291.853 1265.21 294.276C1265.67 294.871 1266.15 295.418 1266.65 295.904ZM1244.72 199.472C1244.72 186.106 1256.67 175.112 1271.62 175.112C1286.56 175.112 1298.51 186.106 1298.51 199.472C1298.51 206.364 1295.41 230.733 1290.37 253.415C1287.85 264.748 1284.86 275.596 1281.55 283.592C1279.9 287.595 1278.19 290.828 1276.45 293.043C1274.69 295.29 1273.07 296.288 1271.62 296.288C1270.16 296.288 1268.54 295.29 1266.78 293.043C1265.05 290.828 1263.34 287.595 1261.68 283.592C1258.38 275.596 1255.39 264.748 1252.87 253.415C1247.82 230.733 1244.72 206.364 1244.72 199.472Z" stroke="#007D3A" stroke-opacity="0.25" stroke-width="2"/>
    <path d="M1420.08 199.472C1420.08 126.081 1485.56 66.4279 1566.54 66.4279C1647.52 66.4279 1713 126.081 1713 199.472C1713 236.118 1696.7 260.245 1670.31 275.273C1649.68 287.027 1622.84 293.228 1592.75 295.39C1640.02 284.728 1675.15 245.889 1675.15 199.472C1675.15 144.81 1626.43 100.656 1566.54 100.656C1506.65 100.656 1457.93 144.81 1457.93 199.472C1457.93 245.889 1493.06 284.728 1540.33 295.39C1510.23 293.228 1483.4 287.027 1462.76 275.273C1436.38 260.245 1420.08 236.118 1420.08 199.472ZM1673.15 199.472C1673.15 248.603 1632.79 289.307 1580.39 295.479C1584.97 293.622 1589.37 290.914 1593.54 287.567C1601.76 280.961 1609.13 271.822 1615.3 261.654C1627.63 241.34 1635.29 216.708 1635.29 199.472C1635.29 164.818 1604.42 136.884 1566.54 136.884C1528.66 136.884 1497.79 164.818 1497.79 199.472C1497.79 216.708 1505.45 241.34 1517.78 261.654C1523.95 271.822 1531.32 280.961 1539.54 287.567C1543.71 290.914 1548.1 293.622 1552.68 295.479C1500.28 289.307 1459.93 248.603 1459.93 199.472C1459.93 146.09 1507.57 102.656 1566.54 102.656C1625.51 102.656 1673.15 146.09 1673.15 199.472ZM1561.57 295.904C1554.3 294.78 1547.31 291.245 1540.79 286.008C1532.8 279.589 1525.57 270.651 1519.48 260.617C1507.29 240.526 1499.79 216.25 1499.79 199.472C1499.79 166.098 1529.58 138.884 1566.54 138.884C1603.5 138.884 1633.29 166.098 1633.29 199.472C1633.29 216.25 1625.78 240.526 1613.59 260.617C1607.5 270.651 1600.27 279.589 1592.28 286.008C1585.77 291.245 1578.78 294.78 1571.5 295.904C1572 295.418 1572.48 294.871 1572.95 294.276C1574.85 291.853 1576.64 288.428 1578.32 284.356C1581.69 276.2 1584.71 265.22 1587.24 253.849C1592.29 231.125 1595.44 206.586 1595.44 199.472C1595.44 184.826 1582.41 173.112 1566.54 173.112C1550.67 173.112 1537.64 184.826 1537.64 199.472C1537.64 206.586 1540.78 231.125 1545.84 253.849C1548.36 265.22 1551.38 276.2 1554.76 284.356C1556.44 288.428 1558.23 291.853 1560.13 294.276C1560.59 294.871 1561.08 295.418 1561.57 295.904ZM1539.64 199.472C1539.64 186.106 1551.59 175.112 1566.54 175.112C1581.49 175.112 1593.44 186.106 1593.44 199.472C1593.44 206.364 1590.33 230.733 1585.29 253.415C1582.77 264.748 1579.78 275.596 1576.47 283.592C1574.82 287.595 1573.11 290.828 1571.37 293.043C1569.61 295.29 1567.99 296.288 1566.54 296.288C1565.09 296.288 1563.46 295.29 1561.7 293.043C1559.97 290.828 1558.26 287.595 1556.6 283.592C1553.3 275.596 1550.31 264.748 1547.79 253.415C1542.74 230.733 1539.64 206.364 1539.64 199.472Z" stroke="#007D3A" stroke-opacity="0.25" stroke-width="2"/>
    <path d="M92.9225 405.905C92.9225 332.514 158.404 272.86 239.384 272.86C320.365 272.86 385.846 332.514 385.846 405.905C385.846 442.55 369.542 466.678 343.16 481.705C322.525 493.459 295.69 499.661 265.595 501.822C312.863 491.161 347.991 452.321 347.991 405.905C347.991 351.242 299.274 307.089 239.384 307.089C179.494 307.089 130.777 351.242 130.777 405.905C130.777 452.321 165.905 491.161 213.173 501.822C183.078 499.661 156.243 493.459 135.608 481.705C109.226 466.678 92.9225 442.55 92.9225 405.905ZM345.991 405.905C345.991 455.036 305.639 495.74 253.239 501.911C257.819 500.055 262.217 497.347 266.383 494C274.605 487.393 281.976 478.255 288.147 468.087C300.476 447.773 308.137 423.141 308.137 405.905C308.137 371.251 277.263 343.317 239.384 343.317C201.505 343.317 170.631 371.251 170.631 405.905C170.631 423.141 178.292 447.773 190.621 468.087C196.792 478.255 204.163 487.393 212.385 494C216.551 497.347 220.949 500.055 225.53 501.911C173.129 495.74 132.777 455.036 132.777 405.905C132.777 352.522 180.415 309.089 239.384 309.089C298.354 309.089 345.991 352.522 345.991 405.905ZM234.42 502.336C227.147 501.213 220.156 497.678 213.638 492.441C205.649 486.021 198.42 477.083 192.331 467.049C180.138 446.958 172.631 422.683 172.631 405.905C172.631 372.531 202.426 345.317 239.384 345.317C276.342 345.317 306.137 372.531 306.137 405.905C306.137 422.683 298.631 446.958 286.438 467.049C280.348 477.083 273.12 486.021 265.13 492.441C258.612 497.678 251.622 501.213 244.348 502.336C244.846 501.85 245.328 501.303 245.794 500.709C247.692 498.285 249.484 494.861 251.168 490.788C254.538 482.632 257.559 471.652 260.087 460.282C265.14 437.558 268.282 413.018 268.282 405.905C268.282 391.259 255.252 379.545 239.384 379.545C223.516 379.545 210.486 391.259 210.486 405.905C210.486 413.018 213.628 437.558 218.681 460.282C221.209 471.652 224.23 482.632 227.601 490.788C229.284 494.861 231.077 498.285 232.974 500.709C233.44 501.303 233.922 501.85 234.42 502.336ZM212.486 405.905C212.486 392.539 224.437 381.545 239.384 381.545C254.331 381.545 266.282 392.539 266.282 405.905C266.282 412.797 263.179 437.166 258.135 459.848C255.615 471.181 252.624 482.028 249.319 490.025C247.665 494.028 245.954 497.261 244.219 499.476C242.46 501.723 240.837 502.721 239.384 502.721C237.931 502.721 236.309 501.723 234.549 499.476C232.814 497.261 231.104 494.028 229.449 490.025C226.144 482.028 223.153 471.181 220.633 459.848C215.589 437.166 212.486 412.797 212.486 405.905Z" stroke="#007D3A" stroke-opacity="0.25" stroke-width="2"/>
    <path d="M-202 405.905C-202 332.514 -136.519 272.86 -55.5383 272.86C25.4422 272.86 90.9233 332.514 90.9233 405.905C90.9233 442.55 74.6201 466.678 48.2379 481.705C27.6029 493.459 0.767647 499.661 -29.3276 501.822C17.9407 491.161 53.0689 452.321 53.0689 405.905C53.0689 351.242 4.35188 307.089 -55.5383 307.089C-115.428 307.089 -164.145 351.242 -164.145 405.905C-164.145 452.321 -129.017 491.161 -81.7489 501.822C-111.844 499.661 -138.679 493.459 -159.314 481.705C-185.697 466.678 -202 442.55 -202 405.905ZM51.0689 405.905C51.0689 455.036 10.7164 495.74 -41.6839 501.911C-37.1035 500.055 -32.7056 497.347 -28.5395 494C-20.3173 487.393 -12.9461 478.255 -6.77504 468.087C5.55351 447.773 13.2144 423.141 13.2144 405.905C13.2144 371.251 -17.6591 343.317 -55.5383 343.317C-93.4174 343.317 -124.291 371.251 -124.291 405.905C-124.291 423.141 -116.63 447.773 -104.301 468.087C-98.1304 478.255 -90.7592 487.393 -82.537 494C-78.3709 497.347 -73.973 500.055 -69.3927 501.911C-121.793 495.74 -162.145 455.036 -162.145 405.905C-162.145 352.522 -114.508 309.089 -55.5383 309.089C3.43114 309.089 51.0689 352.522 51.0689 405.905ZM-60.502 502.336C-67.7758 501.213 -74.766 497.678 -81.2843 492.441C-89.2737 486.021 -96.502 477.083 -102.592 467.049C-114.785 446.958 -122.291 422.683 -122.291 405.905C-122.291 372.531 -92.4966 345.317 -55.5383 345.317C-18.5799 345.317 11.2144 372.531 11.2144 405.905C11.2144 422.683 3.70828 446.958 -8.48479 467.049C-14.5746 477.083 -21.8028 486.021 -29.7922 492.441C-36.3105 497.678 -43.3007 501.213 -50.5746 502.336C-50.0762 501.85 -49.5941 501.303 -49.1285 500.709C-47.2308 498.285 -45.4379 494.861 -43.7549 490.788C-40.3841 482.632 -37.3636 471.652 -34.8351 460.282C-29.7819 437.558 -26.6401 413.018 -26.6401 405.905C-26.6401 391.259 -39.6702 379.545 -55.5383 379.545C-71.4063 379.545 -84.4364 391.259 -84.4364 405.905C-84.4364 413.018 -81.2946 437.558 -76.2414 460.282C-73.7129 471.652 -70.6924 482.632 -67.3217 490.788C-65.6386 494.861 -63.8457 498.285 -61.948 500.709C-61.4824 501.303 -61.0004 501.85 -60.502 502.336ZM-82.4364 405.905C-82.4364 392.539 -70.4856 381.545 -55.5383 381.545C-40.5909 381.545 -28.6401 392.539 -28.6401 405.905C-28.6401 412.797 -31.7436 437.166 -36.7874 459.848C-39.3076 471.181 -42.2986 482.028 -45.6032 490.025C-47.2578 494.028 -48.9686 497.261 -50.7031 499.476C-52.4628 501.723 -54.0851 502.721 -55.5383 502.721C-56.9914 502.721 -58.6137 501.723 -60.3734 499.476C-62.1079 497.261 -63.8187 494.028 -65.4733 490.025C-68.7779 482.028 -71.769 471.181 -74.2891 459.848C-79.3329 437.166 -82.4364 412.797 -82.4364 405.905Z" stroke="#007D3A" stroke-opacity="0.25" stroke-width="2"/>
    <path d="M387.845 405.905C387.845 332.514 453.326 272.86 534.307 272.86C615.287 272.86 680.768 332.514 680.768 405.905C680.768 442.55 664.465 466.678 638.083 481.705C617.448 493.459 590.613 499.661 560.517 501.822C607.786 491.161 642.914 452.321 642.914 405.905C642.914 351.242 594.197 307.089 534.307 307.089C474.417 307.089 425.7 351.242 425.7 405.905C425.7 452.321 460.828 491.161 508.096 501.822C478.001 499.661 451.166 493.459 430.531 481.705C404.148 466.678 387.845 442.55 387.845 405.905ZM640.914 405.905C640.914 455.036 600.561 495.74 548.161 501.911C552.741 500.055 557.139 497.347 561.305 494C569.528 487.393 576.899 478.255 583.07 468.087C595.398 447.773 603.059 423.141 603.059 405.905C603.059 371.251 572.186 343.317 534.307 343.317C496.428 343.317 465.554 371.251 465.554 405.905C465.554 423.141 473.215 447.773 485.543 468.087C491.715 478.255 499.086 487.393 507.308 494C511.474 497.347 515.872 500.055 520.452 501.911C468.052 495.74 427.7 455.036 427.7 405.905C427.7 352.522 475.337 309.089 534.307 309.089C593.276 309.089 640.914 352.522 640.914 405.905ZM529.343 502.336C522.069 501.213 515.079 497.678 508.561 492.441C500.571 486.021 493.343 477.083 487.253 467.049C475.06 446.958 467.554 422.683 467.554 405.905C467.554 372.531 497.348 345.317 534.307 345.317C571.265 345.317 601.059 372.531 601.059 405.905C601.059 422.683 593.553 446.958 581.36 467.049C575.27 477.083 568.042 486.021 560.053 492.441C553.534 497.678 546.544 501.213 539.27 502.336C539.769 501.85 540.251 501.303 540.716 500.709C542.614 498.285 544.407 494.861 546.09 490.788C549.461 482.632 552.481 471.652 555.01 460.282C560.063 437.558 563.205 413.018 563.205 405.905C563.205 391.259 550.175 379.545 534.307 379.545C518.439 379.545 505.409 391.259 505.409 405.905C505.409 413.018 508.55 437.558 513.604 460.282C516.132 471.652 519.153 482.632 522.523 490.788C524.206 494.861 525.999 498.285 527.897 500.709C528.363 501.303 528.845 501.85 529.343 502.336ZM507.409 405.905C507.409 392.539 519.359 381.545 534.307 381.545C549.254 381.545 561.205 392.539 561.205 405.905C561.205 412.797 558.101 437.166 553.058 459.848C550.537 471.181 547.546 482.028 544.242 490.025C542.587 494.028 540.876 497.261 539.142 499.476C537.382 501.723 535.76 502.721 534.307 502.721C532.854 502.721 531.231 501.723 529.472 499.476C527.737 497.261 526.026 494.028 524.372 490.025C521.067 482.028 518.076 471.181 515.556 459.848C510.512 437.166 507.409 412.797 507.409 405.905Z" stroke="#007D3A" stroke-opacity="0.25" stroke-width="2"/>
    <path d="M682.769 405.905C682.769 332.514 748.25 272.86 829.23 272.86C910.211 272.86 975.692 332.514 975.692 405.905C975.692 442.55 959.389 466.678 933.006 481.705C912.371 493.459 885.536 499.661 855.441 501.822C902.709 491.161 937.837 452.321 937.837 405.905C937.837 351.242 889.12 307.089 829.23 307.089C769.34 307.089 720.623 351.242 720.623 405.905C720.623 452.321 755.751 491.161 803.02 501.822C772.924 499.661 746.089 493.459 725.454 481.705C699.072 466.678 682.769 442.55 682.769 405.905ZM935.837 405.905C935.837 455.036 895.485 495.74 843.085 501.911C847.665 500.055 852.063 497.347 856.229 494C864.451 487.393 871.822 478.255 877.994 468.087C890.322 447.773 897.983 423.141 897.983 405.905C897.983 371.251 867.109 343.317 829.23 343.317C791.351 343.317 760.478 371.251 760.478 405.905C760.478 423.141 768.139 447.773 780.467 468.087C786.638 478.255 794.009 487.393 802.232 494C806.398 497.347 810.796 500.055 815.376 501.911C762.976 495.74 722.623 455.036 722.623 405.905C722.623 352.522 770.261 309.089 829.23 309.089C888.2 309.089 935.837 352.522 935.837 405.905ZM824.267 502.336C816.993 501.213 810.003 497.678 803.484 492.441C795.495 486.021 788.267 477.083 782.177 467.049C769.984 446.958 762.478 422.683 762.478 405.905C762.478 372.531 792.272 345.317 829.23 345.317C866.189 345.317 895.983 372.531 895.983 405.905C895.983 422.683 888.477 446.958 876.284 467.049C870.194 477.083 862.966 486.021 854.976 492.441C848.458 497.678 841.468 501.213 834.194 502.336C834.692 501.85 835.174 501.303 835.64 500.709C837.538 498.285 839.331 494.861 841.014 490.788C844.384 482.632 847.405 471.652 849.933 460.282C854.987 437.558 858.128 413.018 858.128 405.905C858.128 391.259 845.098 379.545 829.23 379.545C813.362 379.545 800.332 391.259 800.332 405.905C800.332 413.018 803.474 437.558 808.527 460.282C811.056 471.652 814.076 482.632 817.447 490.788C819.13 494.861 820.923 498.285 822.821 500.709C823.286 501.303 823.768 501.85 824.267 502.336ZM802.332 405.905C802.332 392.539 814.283 381.545 829.23 381.545C844.178 381.545 856.128 392.539 856.128 405.905C856.128 412.797 853.025 437.166 847.981 459.848C845.461 471.181 842.47 482.028 839.165 490.025C837.511 494.028 835.8 497.261 834.065 499.476C832.306 501.723 830.683 502.721 829.23 502.721C827.777 502.721 826.155 501.723 824.395 499.476C822.661 497.261 820.95 494.028 819.295 490.025C815.991 482.028 813 471.181 810.479 459.848C805.436 437.166 802.332 412.797 802.332 405.905Z" stroke="#007D3A" stroke-opacity="0.25" stroke-width="2"/>
    <path d="M977.691 405.905C977.691 332.514 1043.17 272.86 1124.15 272.86C1205.13 272.86 1270.61 332.514 1270.61 405.905C1270.61 442.55 1254.31 466.678 1227.93 481.705C1207.29 493.459 1180.46 499.661 1150.36 501.822C1197.63 491.161 1232.76 452.321 1232.76 405.905C1232.76 351.242 1184.04 307.089 1124.15 307.089C1064.26 307.089 1015.55 351.242 1015.55 405.905C1015.55 452.321 1050.67 491.161 1097.94 501.822C1067.85 499.661 1041.01 493.459 1020.38 481.705C993.995 466.678 977.691 442.55 977.691 405.905ZM1230.76 405.905C1230.76 455.036 1190.41 495.74 1138.01 501.911C1142.59 500.055 1146.99 497.347 1151.15 494C1159.37 487.393 1166.75 478.255 1172.92 468.087C1185.24 447.773 1192.91 423.141 1192.91 405.905C1192.91 371.251 1162.03 343.317 1124.15 343.317C1086.27 343.317 1055.4 371.251 1055.4 405.905C1055.4 423.141 1063.06 447.773 1075.39 468.087C1081.56 478.255 1088.93 487.393 1097.15 494C1101.32 497.347 1105.72 500.055 1110.3 501.911C1057.9 495.74 1017.55 455.036 1017.55 405.905C1017.55 352.522 1065.18 309.089 1124.15 309.089C1183.12 309.089 1230.76 352.522 1230.76 405.905ZM1119.19 502.336C1111.92 501.213 1104.93 497.678 1098.41 492.441C1090.42 486.021 1083.19 477.083 1077.1 467.049C1064.91 446.958 1057.4 422.683 1057.4 405.905C1057.4 372.531 1087.19 345.317 1124.15 345.317C1161.11 345.317 1190.91 372.531 1190.91 405.905C1190.91 422.683 1183.4 446.958 1171.21 467.049C1165.12 477.083 1157.89 486.021 1149.9 492.441C1143.38 497.678 1136.39 501.213 1129.12 502.336C1129.62 501.85 1130.1 501.303 1130.56 500.709C1132.46 498.285 1134.25 494.861 1135.94 490.788C1139.31 482.632 1142.33 471.652 1144.86 460.282C1149.91 437.558 1153.05 413.018 1153.05 405.905C1153.05 391.259 1140.02 379.545 1124.15 379.545C1108.28 379.545 1095.25 391.259 1095.25 405.905C1095.25 413.018 1098.4 437.558 1103.45 460.282C1105.98 471.652 1109 482.632 1112.37 490.788C1114.05 494.861 1115.85 498.285 1117.74 500.709C1118.21 501.303 1118.69 501.85 1119.19 502.336ZM1097.25 405.905C1097.25 392.539 1109.21 381.545 1124.15 381.545C1139.1 381.545 1151.05 392.539 1151.05 405.905C1151.05 412.797 1147.95 437.166 1142.9 459.848C1140.38 471.181 1137.39 482.028 1134.09 490.025C1132.43 494.028 1130.72 497.261 1128.99 499.476C1127.23 501.723 1125.61 502.721 1124.15 502.721C1122.7 502.721 1121.08 501.723 1119.32 499.476C1117.58 497.261 1115.87 494.028 1114.22 490.025C1110.91 482.028 1107.92 471.181 1105.4 459.848C1100.36 437.166 1097.25 412.797 1097.25 405.905Z" stroke="#007D3A" stroke-opacity="0.25" stroke-width="2"/>
    <path d="M1272.62 405.905C1272.62 332.514 1338.1 272.86 1419.08 272.86C1500.06 272.86 1565.54 332.514 1565.54 405.905C1565.54 442.55 1549.24 466.678 1522.85 481.705C1502.22 493.459 1475.38 499.661 1445.29 501.822C1492.56 491.161 1527.68 452.321 1527.68 405.905C1527.68 351.242 1478.97 307.089 1419.08 307.089C1359.19 307.089 1310.47 351.242 1310.47 405.905C1310.47 452.321 1345.6 491.161 1392.87 501.822C1362.77 499.661 1335.94 493.459 1315.3 481.705C1288.92 466.678 1272.62 442.55 1272.62 405.905ZM1525.68 405.905C1525.68 455.036 1485.33 495.74 1432.93 501.911C1437.51 500.055 1441.91 497.347 1446.08 494C1454.3 487.393 1461.67 478.255 1467.84 468.087C1480.17 447.773 1487.83 423.141 1487.83 405.905C1487.83 371.251 1456.96 343.317 1419.08 343.317C1381.2 343.317 1350.32 371.251 1350.32 405.905C1350.32 423.141 1357.99 447.773 1370.31 468.087C1376.49 478.255 1383.86 487.393 1392.08 494C1396.24 497.347 1400.64 500.055 1405.22 501.911C1352.82 495.74 1312.47 455.036 1312.47 405.905C1312.47 352.522 1360.11 309.089 1419.08 309.089C1478.05 309.089 1525.68 352.522 1525.68 405.905ZM1414.11 502.336C1406.84 501.213 1399.85 497.678 1393.33 492.441C1385.34 486.021 1378.11 477.083 1372.02 467.049C1359.83 446.958 1352.32 422.683 1352.32 405.905C1352.32 372.531 1382.12 345.317 1419.08 345.317C1456.04 345.317 1485.83 372.531 1485.83 405.905C1485.83 422.683 1478.32 446.958 1466.13 467.049C1460.04 477.083 1452.81 486.021 1444.82 492.441C1438.31 497.678 1431.32 501.213 1424.04 502.336C1424.54 501.85 1425.02 501.303 1425.49 500.709C1427.38 498.285 1429.18 494.861 1430.86 490.788C1434.23 482.632 1437.25 471.652 1439.78 460.282C1444.83 437.558 1447.98 413.018 1447.98 405.905C1447.98 391.259 1434.95 379.545 1419.08 379.545C1403.21 379.545 1390.18 391.259 1390.18 405.905C1390.18 413.018 1393.32 437.558 1398.37 460.282C1400.9 471.652 1403.92 482.632 1407.29 490.788C1408.98 494.861 1410.77 498.285 1412.67 500.709C1413.13 501.303 1413.62 501.85 1414.11 502.336ZM1392.18 405.905C1392.18 392.539 1404.13 381.545 1419.08 381.545C1434.02 381.545 1445.98 392.539 1445.98 405.905C1445.98 412.797 1442.87 437.166 1437.83 459.848C1435.31 471.181 1432.32 482.028 1429.01 490.025C1427.36 494.028 1425.65 497.261 1423.91 499.476C1422.15 501.723 1420.53 502.721 1419.08 502.721C1417.62 502.721 1416 501.723 1414.24 499.476C1412.51 497.261 1410.8 494.028 1409.14 490.025C1405.84 482.028 1402.85 471.181 1400.33 459.848C1395.28 437.166 1392.18 412.797 1392.18 405.905Z" stroke="#007D3A" stroke-opacity="0.25" stroke-width="2"/>
    <path d="M240.384 612.327C240.384 538.936 305.865 479.282 386.846 479.282C467.826 479.282 533.307 538.936 533.307 612.327C533.307 648.972 517.004 673.1 490.622 688.127C469.987 699.881 443.151 706.083 413.056 708.244C460.325 697.583 495.453 658.743 495.453 612.327C495.453 557.664 446.736 513.51 386.846 513.51C326.955 513.51 278.238 557.664 278.238 612.327C278.238 658.743 313.367 697.583 360.635 708.244C330.54 706.083 303.704 699.881 283.069 688.127C256.687 673.1 240.384 648.972 240.384 612.327ZM493.453 612.327C493.453 661.458 453.1 702.162 400.7 708.333C405.28 706.476 409.678 703.769 413.844 700.422C422.066 693.815 429.438 684.677 435.609 674.509C447.937 654.195 455.598 629.563 455.598 612.327C455.598 577.673 424.725 549.739 386.846 549.739C348.966 549.739 318.093 577.673 318.093 612.327C318.093 629.563 325.754 654.195 338.082 674.509C344.253 684.677 351.625 693.815 359.847 700.422C364.013 703.769 368.411 706.476 372.991 708.333C320.591 702.162 280.238 661.458 280.238 612.327C280.238 558.944 327.876 515.51 386.846 515.51C445.815 515.51 493.453 558.944 493.453 612.327ZM381.882 708.758C374.608 707.635 367.618 704.1 361.1 698.863C353.11 692.443 345.882 683.505 339.792 673.471C327.599 653.38 320.093 629.104 320.093 612.327C320.093 578.952 349.887 551.739 386.846 551.739C423.804 551.739 453.598 578.952 453.598 612.327C453.598 629.104 446.092 653.38 433.899 673.471C427.809 683.505 420.581 692.443 412.592 698.863C406.073 704.1 399.083 707.635 391.809 708.758C392.308 708.272 392.79 707.725 393.255 707.131C395.153 704.707 396.946 701.283 398.629 697.21C402 689.054 405.02 678.074 407.549 666.704C412.602 643.979 415.744 619.44 415.744 612.327C415.744 597.681 402.714 585.967 386.846 585.967C370.977 585.967 357.947 597.681 357.947 612.327C357.947 619.44 361.089 643.979 366.142 666.704C368.671 678.074 371.691 689.054 375.062 697.21C376.745 701.283 378.538 704.707 380.436 707.131C380.901 707.725 381.383 708.272 381.882 708.758ZM359.947 612.327C359.947 598.961 371.898 587.967 386.846 587.967C401.793 587.967 413.744 598.961 413.744 612.327C413.744 619.219 410.64 643.587 405.596 666.27C403.076 677.603 400.085 688.45 396.781 696.446C395.126 700.45 393.415 703.683 391.681 705.897C389.921 708.144 388.299 709.143 386.846 709.143C385.392 709.143 383.77 708.144 382.01 705.897C380.276 703.683 378.565 700.45 376.911 696.446C373.606 688.45 370.615 677.603 368.095 666.27C363.051 643.587 359.947 619.219 359.947 612.327Z" stroke="#007D3A" stroke-opacity="0.25" stroke-width="2"/>
    <path d="M-54.5394 612.327C-54.5394 538.936 10.9418 479.282 91.9222 479.282C172.903 479.282 238.384 538.936 238.384 612.327C238.384 648.972 222.081 673.1 195.698 688.127C175.063 699.881 148.228 706.083 118.133 708.244C165.401 697.583 200.529 658.743 200.529 612.327C200.529 557.664 151.812 513.51 91.9222 513.51C32.0321 513.51 -16.6849 557.664 -16.6849 612.327C-16.6849 658.743 18.4432 697.583 65.7115 708.244C35.6163 706.083 8.78108 699.881 -11.854 688.127C-38.2361 673.1 -54.5394 648.972 -54.5394 612.327ZM198.529 612.327C198.529 661.458 158.177 702.162 105.777 708.333C110.357 706.476 114.755 703.769 118.921 700.422C127.143 693.815 134.514 684.677 140.685 674.509C153.014 654.195 160.675 629.563 160.675 612.327C160.675 577.673 129.801 549.739 91.9222 549.739C54.0431 549.739 23.1696 577.673 23.1696 612.327C23.1696 629.563 30.8304 654.195 43.159 674.509C49.33 684.677 56.7013 693.815 64.9235 700.422C69.0895 703.769 73.4874 706.476 78.0678 708.333C25.6675 702.162 -14.6849 661.458 -14.6849 612.327C-14.6849 558.944 32.9528 515.51 91.9222 515.51C150.892 515.51 198.529 558.944 198.529 612.327ZM86.9585 708.758C79.6846 707.635 72.6945 704.1 66.1762 698.863C58.1867 692.443 50.9585 683.505 44.8687 673.471C32.6756 653.38 25.1696 629.104 25.1696 612.327C25.1696 578.952 54.9638 551.739 91.9222 551.739C128.881 551.739 158.675 578.952 158.675 612.327C158.675 629.104 151.169 653.38 138.976 673.471C132.886 683.505 125.658 692.443 117.668 698.863C111.15 704.1 104.16 707.635 96.8859 708.758C97.3843 708.272 97.8663 707.725 98.332 707.131C100.23 704.707 102.023 701.283 103.706 697.21C107.076 689.054 110.097 678.074 112.625 666.704C117.679 643.979 120.82 619.44 120.82 612.327C120.82 597.681 107.79 585.967 91.9222 585.967C76.0541 585.967 63.024 597.681 63.024 612.327C63.024 619.44 66.1658 643.979 71.2191 666.704C73.7475 678.074 76.7681 689.054 80.1388 697.21C81.8219 701.283 83.6147 704.707 85.5124 707.131C85.978 707.725 86.4601 708.272 86.9585 708.758ZM65.024 612.327C65.024 598.961 76.9749 587.967 91.9222 587.967C106.87 587.967 118.82 598.961 118.82 612.327C118.82 619.219 115.717 643.587 110.673 666.27C108.153 677.603 105.162 688.45 101.857 696.446C100.203 700.45 98.4918 703.683 96.7573 705.897C94.9977 708.144 93.3754 709.143 91.9222 709.143C90.469 709.143 88.8467 708.144 87.0871 705.897C85.3526 703.683 83.6418 700.45 81.9872 696.446C78.6825 688.45 75.6915 677.603 73.1714 666.27C68.1275 643.587 65.024 619.219 65.024 612.327Z" stroke="#007D3A" stroke-opacity="0.25" stroke-width="2"/>
    <path d="M535.307 612.327C535.307 538.936 600.788 479.282 681.768 479.282C762.749 479.282 828.23 538.936 828.23 612.327C828.23 648.972 811.927 673.1 785.545 688.127C764.91 699.881 738.074 706.083 707.979 708.244C755.247 697.583 790.375 658.743 790.375 612.327C790.375 557.664 741.659 513.51 681.768 513.51C621.878 513.51 573.161 557.664 573.161 612.327C573.161 658.743 608.289 697.583 655.558 708.244C625.462 706.083 598.627 699.881 577.992 688.127C551.61 673.1 535.307 648.972 535.307 612.327ZM788.375 612.327C788.375 661.458 748.023 702.162 695.623 708.333C700.203 706.476 704.601 703.769 708.767 700.422C716.989 693.815 724.361 684.677 730.532 674.509C742.86 654.195 750.521 629.563 750.521 612.327C750.521 577.673 719.647 549.739 681.768 549.739C643.889 549.739 613.016 577.673 613.016 612.327C613.016 629.563 620.677 654.195 633.005 674.509C639.176 684.677 646.547 693.815 654.77 700.422C658.936 703.769 663.334 706.476 667.914 708.333C615.514 702.162 575.161 661.458 575.161 612.327C575.161 558.944 622.799 515.51 681.768 515.51C740.738 515.51 788.375 558.944 788.375 612.327ZM676.805 708.758C669.531 707.635 662.541 704.1 656.022 698.863C648.033 692.443 640.805 683.505 634.715 673.471C622.522 653.38 615.016 629.104 615.016 612.327C615.016 578.952 644.81 551.739 681.768 551.739C718.727 551.739 748.521 578.952 748.521 612.327C748.521 629.104 741.015 653.38 728.822 673.471C722.732 683.505 715.504 692.443 707.514 698.863C700.996 704.1 694.006 707.635 686.732 708.758C687.23 708.272 687.713 707.725 688.178 707.131C690.076 704.707 691.869 701.283 693.552 697.21C696.923 689.054 699.943 678.074 702.472 666.704C707.525 643.979 710.667 619.44 710.667 612.327C710.667 597.681 697.636 585.967 681.768 585.967C665.9 585.967 652.87 597.681 652.87 612.327C652.87 619.44 656.012 643.979 661.065 666.704C663.594 678.074 666.614 689.054 669.985 697.21C671.668 701.283 673.461 704.707 675.359 707.131C675.824 707.725 676.306 708.272 676.805 708.758ZM654.87 612.327C654.87 598.961 666.821 587.967 681.768 587.967C696.716 587.967 708.667 598.961 708.667 612.327C708.667 619.219 705.563 643.587 700.519 666.27C697.999 677.603 695.008 688.45 691.703 696.446C690.049 700.45 688.338 703.683 686.604 705.897C684.844 708.144 683.222 709.143 681.768 709.143C680.315 709.143 678.693 708.144 676.933 705.897C675.199 703.683 673.488 700.45 671.833 696.446C668.529 688.45 665.538 677.603 663.018 666.27C657.974 643.587 654.87 619.219 654.87 612.327Z" stroke="#007D3A" stroke-opacity="0.25" stroke-width="2"/>
    <path d="M830.23 612.327C830.23 538.936 895.712 479.282 976.692 479.282C1057.67 479.282 1123.15 538.936 1123.15 612.327C1123.15 648.972 1106.85 673.1 1080.47 688.127C1059.83 699.881 1033 706.083 1002.9 708.244C1050.17 697.583 1085.3 658.743 1085.3 612.327C1085.3 557.664 1036.58 513.51 976.692 513.51C916.802 513.51 868.085 557.664 868.085 612.327C868.085 658.743 903.213 697.583 950.481 708.244C920.386 706.083 893.551 699.881 872.916 688.127C846.534 673.1 830.23 648.972 830.23 612.327ZM1083.3 612.327C1083.3 661.458 1042.95 702.162 990.546 708.333C995.127 706.476 999.525 703.769 1003.69 700.422C1011.91 693.815 1019.28 684.677 1025.46 674.509C1037.78 654.195 1045.44 629.563 1045.44 612.327C1045.44 577.673 1014.57 549.739 976.692 549.739C938.813 549.739 907.939 577.673 907.939 612.327C907.939 629.563 915.6 654.195 927.929 674.509C934.1 684.677 941.471 693.815 949.693 700.422C953.859 703.769 958.257 706.476 962.838 708.333C910.437 702.162 870.085 661.458 870.085 612.327C870.085 558.944 917.723 515.51 976.692 515.51C1035.66 515.51 1083.3 558.944 1083.3 612.327ZM971.728 708.758C964.454 707.635 957.464 704.1 950.946 698.863C942.956 692.443 935.728 683.505 929.639 673.471C917.445 653.38 909.939 629.104 909.939 612.327C909.939 578.952 939.734 551.739 976.692 551.739C1013.65 551.739 1043.44 578.952 1043.44 612.327C1043.44 629.104 1035.94 653.38 1023.75 673.471C1017.66 683.505 1010.43 692.443 1002.44 698.863C995.92 704.1 988.93 707.635 981.656 708.758C982.154 708.272 982.636 707.725 983.102 707.131C984.999 704.707 986.792 701.283 988.475 697.21C991.846 689.054 994.867 678.074 997.395 666.704C1002.45 643.979 1005.59 619.44 1005.59 612.327C1005.59 597.681 992.56 585.967 976.692 585.967C960.824 585.967 947.794 597.681 947.794 612.327C947.794 619.44 950.936 643.979 955.989 666.704C958.517 678.074 961.538 689.054 964.909 697.21C966.592 701.283 968.385 704.707 970.282 707.131C970.748 707.725 971.23 708.272 971.728 708.758ZM949.794 612.327C949.794 598.961 961.745 587.967 976.692 587.967C991.639 587.967 1003.59 598.961 1003.59 612.327C1003.59 619.219 1000.49 643.587 995.443 666.27C992.923 677.603 989.932 688.45 986.627 696.446C984.972 700.45 983.262 703.683 981.527 705.897C979.767 708.144 978.145 709.143 976.692 709.143C975.239 709.143 973.616 708.144 971.857 705.897C970.122 703.683 968.412 700.45 966.757 696.446C963.452 688.45 960.461 677.603 957.941 666.27C952.897 643.587 949.794 619.219 949.794 612.327Z" stroke="#007D3A" stroke-opacity="0.25" stroke-width="2"/>
    <path d="M1125.15 612.327C1125.15 538.936 1190.63 479.282 1271.61 479.282C1352.59 479.282 1418.08 538.936 1418.08 612.327C1418.08 648.972 1401.77 673.1 1375.39 688.127C1354.76 699.881 1327.92 706.083 1297.83 708.244C1345.09 697.583 1380.22 658.743 1380.22 612.327C1380.22 557.664 1331.5 513.51 1271.61 513.51C1211.72 513.51 1163.01 557.664 1163.01 612.327C1163.01 658.743 1198.14 697.583 1245.4 708.244C1215.31 706.083 1188.47 699.881 1167.84 688.127C1141.46 673.1 1125.15 648.972 1125.15 612.327ZM1378.22 612.327C1378.22 661.458 1337.87 702.162 1285.47 708.333C1290.05 706.476 1294.45 703.769 1298.61 700.422C1306.84 693.815 1314.21 684.677 1320.38 674.509C1332.71 654.195 1340.37 629.563 1340.37 612.327C1340.37 577.673 1309.49 549.739 1271.61 549.739C1233.74 549.739 1202.86 577.673 1202.86 612.327C1202.86 629.563 1210.52 654.195 1222.85 674.509C1229.02 684.677 1236.39 693.815 1244.62 700.422C1248.78 703.769 1253.18 706.476 1257.76 708.333C1205.36 702.162 1165.01 661.458 1165.01 612.327C1165.01 558.944 1212.64 515.51 1271.61 515.51C1330.58 515.51 1378.22 558.944 1378.22 612.327ZM1266.65 708.758C1259.38 707.635 1252.39 704.1 1245.87 698.863C1237.88 692.443 1230.65 683.505 1224.56 673.471C1212.37 653.38 1204.86 629.104 1204.86 612.327C1204.86 578.952 1234.66 551.739 1271.61 551.739C1308.57 551.739 1338.37 578.952 1338.37 612.327C1338.37 629.104 1330.86 653.38 1318.67 673.471C1312.58 683.505 1305.35 692.443 1297.36 698.863C1290.84 704.1 1283.85 707.635 1276.58 708.758C1277.08 708.272 1277.56 707.725 1278.02 707.131C1279.92 704.707 1281.71 701.283 1283.4 697.21C1286.77 689.054 1289.79 678.074 1292.32 666.704C1297.37 643.979 1300.51 619.44 1300.51 612.327C1300.51 597.681 1287.48 585.967 1271.61 585.967C1255.75 585.967 1242.72 597.681 1242.72 612.327C1242.72 619.44 1245.86 643.979 1250.91 666.704C1253.44 678.074 1256.46 689.054 1259.83 697.21C1261.51 701.283 1263.31 704.707 1265.2 707.131C1265.67 707.725 1266.15 708.272 1266.65 708.758ZM1244.72 612.327C1244.72 598.961 1256.67 587.967 1271.61 587.967C1286.56 587.967 1298.51 598.961 1298.51 612.327C1298.51 619.219 1295.41 643.587 1290.37 666.27C1287.85 677.603 1284.85 688.45 1281.55 696.446C1279.89 700.45 1278.18 703.683 1276.45 705.897C1274.69 708.144 1273.07 709.143 1271.61 709.143C1270.16 709.143 1268.54 708.144 1266.78 705.897C1265.04 703.683 1263.33 700.45 1261.68 696.446C1258.37 688.45 1255.38 677.603 1252.86 666.27C1247.82 643.587 1244.72 619.219 1244.72 612.327Z" stroke="#007D3A" stroke-opacity="0.25" stroke-width="2"/>
    <path d="M1420.08 612.327C1420.08 538.936 1485.56 479.282 1566.54 479.282C1647.52 479.282 1713 538.936 1713 612.327C1713 648.972 1696.7 673.1 1670.31 688.127C1649.68 699.881 1622.84 706.083 1592.75 708.244C1640.02 697.583 1675.15 658.743 1675.15 612.327C1675.15 557.664 1626.43 513.51 1566.54 513.51C1506.65 513.51 1457.93 557.664 1457.93 612.327C1457.93 658.743 1493.06 697.583 1540.33 708.244C1510.23 706.083 1483.4 699.881 1462.76 688.127C1436.38 673.1 1420.08 648.972 1420.08 612.327ZM1673.15 612.327C1673.15 661.458 1632.79 702.162 1580.39 708.333C1584.97 706.476 1589.37 703.769 1593.54 700.422C1601.76 693.815 1609.13 684.677 1615.3 674.509C1627.63 654.195 1635.29 629.563 1635.29 612.327C1635.29 577.673 1604.42 549.739 1566.54 549.739C1528.66 549.739 1497.79 577.673 1497.79 612.327C1497.79 629.563 1505.45 654.195 1517.78 674.509C1523.95 684.677 1531.32 693.815 1539.54 700.422C1543.71 703.769 1548.1 706.476 1552.68 708.333C1500.28 702.162 1459.93 661.458 1459.93 612.327C1459.93 558.944 1507.57 515.51 1566.54 515.51C1625.51 515.51 1673.15 558.944 1673.15 612.327ZM1561.57 708.758C1554.3 707.635 1547.31 704.1 1540.79 698.863C1532.8 692.443 1525.57 683.505 1519.48 673.471C1507.29 653.38 1499.79 629.104 1499.79 612.327C1499.79 578.952 1529.58 551.739 1566.54 551.739C1603.5 551.739 1633.29 578.952 1633.29 612.327C1633.29 629.104 1625.78 653.38 1613.59 673.471C1607.5 683.505 1600.27 692.443 1592.28 698.863C1585.77 704.1 1578.78 707.635 1571.5 708.758C1572 708.272 1572.48 707.725 1572.95 707.131C1574.85 704.707 1576.64 701.283 1578.32 697.21C1581.69 689.054 1584.71 678.074 1587.24 666.704C1592.29 643.979 1595.44 619.44 1595.44 612.327C1595.44 597.681 1582.41 585.967 1566.54 585.967C1550.67 585.967 1537.64 597.681 1537.64 612.327C1537.64 619.44 1540.78 643.979 1545.84 666.704C1548.36 678.074 1551.38 689.054 1554.76 697.21C1556.44 701.283 1558.23 704.707 1560.13 707.131C1560.59 707.725 1561.08 708.272 1561.57 708.758ZM1539.64 612.327C1539.64 598.961 1551.59 587.967 1566.54 587.967C1581.49 587.967 1593.44 598.961 1593.44 612.327C1593.44 619.219 1590.33 643.587 1585.29 666.27C1582.77 677.603 1579.78 688.45 1576.47 696.446C1574.82 700.45 1573.11 703.683 1571.37 705.897C1569.61 708.144 1567.99 709.143 1566.54 709.143C1565.09 709.143 1563.46 708.144 1561.7 705.897C1559.97 703.683 1558.26 700.45 1556.6 696.446C1553.3 688.45 1550.31 677.603 1547.79 666.27C1542.74 643.587 1539.64 619.219 1539.64 612.327Z" stroke="#007D3A" stroke-opacity="0.25" stroke-width="2"/>
    <path d="M92.9225 818.753C92.9225 745.363 158.404 685.709 239.384 685.709C320.365 685.709 385.846 745.363 385.846 818.753C385.846 855.399 369.542 879.526 343.16 894.554C322.525 906.308 295.69 912.509 265.595 914.671C312.863 904.01 347.991 865.17 347.991 818.753C347.991 764.091 299.274 719.937 239.384 719.937C179.494 719.937 130.777 764.091 130.777 818.753C130.777 865.17 165.905 904.01 213.173 914.671C183.078 912.509 156.243 906.308 135.608 894.554C109.226 879.526 92.9225 855.399 92.9225 818.753ZM345.991 818.753C345.991 867.885 305.639 908.588 253.239 914.76C257.819 912.903 262.217 910.196 266.383 906.848C274.605 900.242 281.976 891.104 288.147 880.935C300.476 860.622 308.137 835.989 308.137 818.753C308.137 784.099 277.263 756.165 239.384 756.165C201.505 756.165 170.631 784.099 170.631 818.753C170.631 835.989 178.292 860.622 190.621 880.935C196.792 891.104 204.163 900.242 212.385 906.848C216.551 910.196 220.949 912.903 225.53 914.76C173.129 908.588 132.777 867.885 132.777 818.753C132.777 765.371 180.415 721.937 239.384 721.937C298.354 721.937 345.991 765.371 345.991 818.753ZM234.42 915.185C227.147 914.061 220.156 910.527 213.638 905.289C205.649 898.87 198.42 889.932 192.331 879.898C180.138 859.807 172.631 835.531 172.631 818.753C172.631 785.379 202.426 758.165 239.384 758.165C276.342 758.165 306.137 785.379 306.137 818.753C306.137 835.531 298.631 859.807 286.438 879.898C280.348 889.932 273.12 898.87 265.13 905.289C258.612 910.527 251.622 914.061 244.348 915.185C244.846 914.699 245.328 914.152 245.794 913.557C247.692 911.134 249.484 907.71 251.168 903.637C254.538 895.481 257.559 884.501 260.087 873.131C265.14 850.406 268.282 825.867 268.282 818.753C268.282 804.108 255.252 792.394 239.384 792.394C223.516 792.394 210.486 804.108 210.486 818.753C210.486 825.867 213.628 850.406 218.681 873.131C221.209 884.501 224.23 895.481 227.601 903.637C229.284 907.71 231.077 911.134 232.974 913.557C233.44 914.152 233.922 914.699 234.42 915.185ZM212.486 818.753C212.486 805.387 224.437 794.394 239.384 794.394C254.331 794.394 266.282 805.387 266.282 818.753C266.282 825.645 263.179 850.014 258.135 872.696C255.615 884.029 252.624 894.877 249.319 902.873C247.665 906.877 245.954 910.109 244.219 912.324C242.46 914.571 240.837 915.569 239.384 915.569C237.931 915.569 236.309 914.571 234.549 912.324C232.814 910.109 231.104 906.877 229.449 902.873C226.144 894.877 223.153 884.029 220.633 872.696C215.589 850.014 212.486 825.645 212.486 818.753Z" stroke="#007D3A" stroke-opacity="0.25" stroke-width="2"/>
    <path d="M-202 818.753C-202 745.363 -136.519 685.709 -55.5383 685.709C25.4422 685.709 90.9233 745.363 90.9233 818.753C90.9233 855.399 74.6201 879.526 48.2379 894.554C27.6029 906.308 0.767647 912.509 -29.3276 914.671C17.9407 904.01 53.0689 865.17 53.0689 818.753C53.0689 764.091 4.35188 719.937 -55.5383 719.937C-115.428 719.937 -164.145 764.091 -164.145 818.753C-164.145 865.17 -129.017 904.01 -81.7489 914.671C-111.844 912.509 -138.679 906.308 -159.314 894.554C-185.697 879.526 -202 855.399 -202 818.753ZM51.0689 818.753C51.0689 867.885 10.7164 908.588 -41.6839 914.76C-37.1035 912.903 -32.7056 910.196 -28.5395 906.848C-20.3173 900.242 -12.9461 891.104 -6.77504 880.935C5.55351 860.622 13.2144 835.989 13.2144 818.753C13.2144 784.099 -17.6591 756.165 -55.5383 756.165C-93.4174 756.165 -124.291 784.099 -124.291 818.753C-124.291 835.989 -116.63 860.622 -104.301 880.935C-98.1304 891.104 -90.7592 900.242 -82.537 906.848C-78.3709 910.196 -73.973 912.903 -69.3927 914.76C-121.793 908.588 -162.145 867.885 -162.145 818.753C-162.145 765.371 -114.508 721.937 -55.5383 721.937C3.43114 721.937 51.0689 765.371 51.0689 818.753ZM-60.502 915.185C-67.7758 914.061 -74.766 910.527 -81.2843 905.289C-89.2737 898.87 -96.502 889.932 -102.592 879.898C-114.785 859.807 -122.291 835.531 -122.291 818.753C-122.291 785.379 -92.4966 758.165 -55.5383 758.165C-18.5799 758.165 11.2144 785.379 11.2144 818.753C11.2144 835.531 3.70828 859.807 -8.48479 879.898C-14.5746 889.932 -21.8028 898.87 -29.7922 905.289C-36.3105 910.527 -43.3007 914.061 -50.5746 915.185C-50.0762 914.699 -49.5941 914.152 -49.1285 913.557C-47.2308 911.134 -45.4379 907.71 -43.7549 903.637C-40.3841 895.481 -37.3636 884.501 -34.8351 873.131C-29.7819 850.406 -26.6401 825.867 -26.6401 818.753C-26.6401 804.108 -39.6702 792.394 -55.5383 792.394C-71.4063 792.394 -84.4364 804.108 -84.4364 818.753C-84.4364 825.867 -81.2946 850.406 -76.2414 873.131C-73.7129 884.501 -70.6924 895.481 -67.3217 903.637C-65.6386 907.71 -63.8457 911.134 -61.948 913.557C-61.4824 914.152 -61.0004 914.699 -60.502 915.185ZM-82.4364 818.753C-82.4364 805.387 -70.4856 794.394 -55.5383 794.394C-40.5909 794.394 -28.6401 805.387 -28.6401 818.753C-28.6401 825.645 -31.7436 850.014 -36.7874 872.696C-39.3076 884.029 -42.2986 894.877 -45.6032 902.873C-47.2578 906.877 -48.9686 910.109 -50.7031 912.324C-52.4628 914.571 -54.0851 915.569 -55.5383 915.569C-56.9914 915.569 -58.6137 914.571 -60.3734 912.324C-62.1079 910.109 -63.8187 906.877 -65.4733 902.873C-68.7779 894.877 -71.769 884.029 -74.2891 872.696C-79.3329 850.014 -82.4364 825.645 -82.4364 818.753Z" stroke="#007D3A" stroke-opacity="0.25" stroke-width="2"/>
    <path d="M387.845 818.753C387.845 745.363 453.326 685.709 534.306 685.709C615.287 685.709 680.768 745.363 680.768 818.753C680.768 855.399 664.465 879.526 638.083 894.554C617.448 906.308 590.612 912.509 560.517 914.671C607.785 904.01 642.914 865.17 642.914 818.753C642.914 764.091 594.197 719.937 534.306 719.937C474.416 719.937 425.699 764.091 425.699 818.753C425.699 865.17 460.827 904.01 508.096 914.671C478.001 912.509 451.165 906.308 430.53 894.554C404.148 879.526 387.845 855.399 387.845 818.753ZM640.914 818.753C640.914 867.885 600.561 908.588 548.161 914.76C552.741 912.903 557.139 910.196 561.305 906.848C569.527 900.242 576.899 891.104 583.07 880.935C595.398 860.622 603.059 835.989 603.059 818.753C603.059 784.099 572.186 756.165 534.306 756.165C496.427 756.165 465.554 784.099 465.554 818.753C465.554 835.989 473.215 860.622 485.543 880.935C491.714 891.104 499.086 900.242 507.308 906.848C511.474 910.196 515.872 912.903 520.452 914.76C468.052 908.588 427.699 867.885 427.699 818.753C427.699 765.371 475.337 721.937 534.306 721.937C593.276 721.937 640.914 765.371 640.914 818.753ZM529.343 915.185C522.069 914.061 515.079 910.527 508.56 905.289C500.571 898.87 493.343 889.932 487.253 879.898C475.06 859.807 467.554 835.531 467.554 818.753C467.554 785.379 497.348 758.165 534.306 758.165C571.265 758.165 601.059 785.379 601.059 818.753C601.059 835.531 593.553 859.807 581.36 879.898C575.27 889.932 568.042 898.87 560.052 905.289C553.534 910.527 546.544 914.061 539.27 915.185C539.769 914.699 540.251 914.152 540.716 913.557C542.614 911.134 544.407 907.71 546.09 903.637C549.461 895.481 552.481 884.501 555.01 873.131C560.063 850.406 563.205 825.867 563.205 818.753C563.205 804.108 550.175 792.394 534.306 792.394C518.438 792.394 505.408 804.108 505.408 818.753C505.408 825.867 508.55 850.406 513.603 873.131C516.132 884.501 519.152 895.481 522.523 903.637C524.206 907.71 525.999 911.134 527.897 913.557C528.362 914.152 528.844 914.699 529.343 915.185ZM507.408 818.753C507.408 805.387 519.359 794.394 534.306 794.394C549.254 794.394 561.205 805.387 561.205 818.753C561.205 825.645 558.101 850.014 553.057 872.696C550.537 884.029 547.546 894.877 544.242 902.873C542.587 906.877 540.876 910.109 539.142 912.324C537.382 914.571 535.76 915.569 534.306 915.569C532.853 915.569 531.231 914.571 529.471 912.324C527.737 910.109 526.026 906.877 524.371 902.873C521.067 894.877 518.076 884.029 515.556 872.696C510.512 850.014 507.408 825.645 507.408 818.753Z" stroke="#007D3A" stroke-opacity="0.25" stroke-width="2"/>
    <path d="M682.769 818.753C682.769 745.363 748.25 685.709 829.23 685.709C910.211 685.709 975.692 745.363 975.692 818.753C975.692 855.399 959.389 879.526 933.006 894.554C912.371 906.308 885.536 912.509 855.441 914.671C902.709 904.01 937.837 865.17 937.837 818.753C937.837 764.091 889.12 719.937 829.23 719.937C769.34 719.937 720.623 764.091 720.623 818.753C720.623 865.17 755.751 904.01 803.02 914.671C772.924 912.509 746.089 906.308 725.454 894.554C699.072 879.526 682.769 855.399 682.769 818.753ZM935.837 818.753C935.837 867.885 895.485 908.588 843.085 914.76C847.665 912.903 852.063 910.196 856.229 906.848C864.451 900.242 871.822 891.104 877.994 880.935C890.322 860.622 897.983 835.989 897.983 818.753C897.983 784.099 867.109 756.165 829.23 756.165C791.351 756.165 760.478 784.099 760.478 818.753C760.478 835.989 768.139 860.622 780.467 880.935C786.638 891.104 794.009 900.242 802.232 906.848C806.398 910.196 810.796 912.903 815.376 914.76C762.976 908.588 722.623 867.885 722.623 818.753C722.623 765.371 770.261 721.937 829.23 721.937C888.2 721.937 935.837 765.371 935.837 818.753ZM824.267 915.185C816.993 914.061 810.003 910.527 803.484 905.289C795.495 898.87 788.267 889.932 782.177 879.898C769.984 859.807 762.478 835.531 762.478 818.753C762.478 785.379 792.272 758.165 829.23 758.165C866.189 758.165 895.983 785.379 895.983 818.753C895.983 835.531 888.477 859.807 876.284 879.898C870.194 889.932 862.966 898.87 854.976 905.289C848.458 910.527 841.468 914.061 834.194 915.185C834.692 914.699 835.174 914.152 835.64 913.557C837.538 911.134 839.331 907.71 841.014 903.637C844.384 895.481 847.405 884.501 849.933 873.131C854.987 850.406 858.128 825.867 858.128 818.753C858.128 804.108 845.098 792.394 829.23 792.394C813.362 792.394 800.332 804.108 800.332 818.753C800.332 825.867 803.474 850.406 808.527 873.131C811.056 884.501 814.076 895.481 817.447 903.637C819.13 907.71 820.923 911.134 822.821 913.557C823.286 914.152 823.768 914.699 824.267 915.185ZM802.332 818.753C802.332 805.387 814.283 794.394 829.23 794.394C844.178 794.394 856.128 805.387 856.128 818.753C856.128 825.645 853.025 850.014 847.981 872.696C845.461 884.029 842.47 894.877 839.165 902.873C837.511 906.877 835.8 910.109 834.065 912.324C832.306 914.571 830.683 915.569 829.23 915.569C827.777 915.569 826.155 914.571 824.395 912.324C822.661 910.109 820.95 906.877 819.295 902.873C815.991 894.877 813 884.029 810.479 872.696C805.436 850.014 802.332 825.645 802.332 818.753Z" stroke="#007D3A" stroke-opacity="0.25" stroke-width="2"/>
    <path d="M977.691 818.753C977.691 745.363 1043.17 685.709 1124.15 685.709C1205.13 685.709 1270.61 745.363 1270.61 818.753C1270.61 855.399 1254.31 879.526 1227.93 894.554C1207.29 906.308 1180.46 912.509 1150.36 914.671C1197.63 904.01 1232.76 865.17 1232.76 818.753C1232.76 764.091 1184.04 719.937 1124.15 719.937C1064.26 719.937 1015.55 764.091 1015.55 818.753C1015.55 865.17 1050.67 904.01 1097.94 914.671C1067.85 912.509 1041.01 906.308 1020.38 894.554C993.995 879.526 977.691 855.399 977.691 818.753ZM1230.76 818.753C1230.76 867.885 1190.41 908.588 1138.01 914.76C1142.59 912.903 1146.99 910.196 1151.15 906.848C1159.37 900.242 1166.75 891.104 1172.92 880.935C1185.24 860.622 1192.91 835.989 1192.91 818.753C1192.91 784.099 1162.03 756.165 1124.15 756.165C1086.27 756.165 1055.4 784.099 1055.4 818.753C1055.4 835.989 1063.06 860.622 1075.39 880.935C1081.56 891.104 1088.93 900.242 1097.15 906.848C1101.32 910.196 1105.72 912.903 1110.3 914.76C1057.9 908.588 1017.55 867.885 1017.55 818.753C1017.55 765.371 1065.18 721.937 1124.15 721.937C1183.12 721.937 1230.76 765.371 1230.76 818.753ZM1119.19 915.185C1111.92 914.061 1104.93 910.527 1098.41 905.289C1090.42 898.87 1083.19 889.932 1077.1 879.898C1064.91 859.807 1057.4 835.531 1057.4 818.753C1057.4 785.379 1087.19 758.165 1124.15 758.165C1161.11 758.165 1190.91 785.379 1190.91 818.753C1190.91 835.531 1183.4 859.807 1171.21 879.898C1165.12 889.932 1157.89 898.87 1149.9 905.289C1143.38 910.527 1136.39 914.061 1129.12 915.185C1129.62 914.699 1130.1 914.152 1130.56 913.557C1132.46 911.134 1134.25 907.71 1135.94 903.637C1139.31 895.481 1142.33 884.501 1144.86 873.131C1149.91 850.406 1153.05 825.867 1153.05 818.753C1153.05 804.108 1140.02 792.394 1124.15 792.394C1108.28 792.394 1095.25 804.108 1095.25 818.753C1095.25 825.867 1098.4 850.406 1103.45 873.131C1105.98 884.501 1109 895.481 1112.37 903.637C1114.05 907.71 1115.85 911.134 1117.74 913.557C1118.21 914.152 1118.69 914.699 1119.19 915.185ZM1097.25 818.753C1097.25 805.387 1109.21 794.394 1124.15 794.394C1139.1 794.394 1151.05 805.387 1151.05 818.753C1151.05 825.645 1147.95 850.014 1142.9 872.696C1140.38 884.029 1137.39 894.877 1134.09 902.873C1132.43 906.877 1130.72 910.109 1128.99 912.324C1127.23 914.571 1125.61 915.569 1124.15 915.569C1122.7 915.569 1121.08 914.571 1119.32 912.324C1117.58 910.109 1115.87 906.877 1114.22 902.873C1110.91 894.877 1107.92 884.029 1105.4 872.696C1100.36 850.014 1097.25 825.645 1097.25 818.753Z" stroke="#007D3A" stroke-opacity="0.25" stroke-width="2"/>
    <path d="M1272.62 818.753C1272.62 745.363 1338.1 685.709 1419.08 685.709C1500.06 685.709 1565.54 745.363 1565.54 818.753C1565.54 855.399 1549.24 879.526 1522.85 894.554C1502.22 906.308 1475.38 912.509 1445.29 914.671C1492.56 904.01 1527.68 865.17 1527.68 818.753C1527.68 764.091 1478.97 719.937 1419.08 719.937C1359.19 719.937 1310.47 764.091 1310.47 818.753C1310.47 865.17 1345.6 904.01 1392.87 914.671C1362.77 912.509 1335.94 906.308 1315.3 894.554C1288.92 879.526 1272.62 855.399 1272.62 818.753ZM1525.68 818.753C1525.68 867.885 1485.33 908.588 1432.93 914.76C1437.51 912.903 1441.91 910.196 1446.08 906.848C1454.3 900.242 1461.67 891.104 1467.84 880.935C1480.17 860.622 1487.83 835.989 1487.83 818.753C1487.83 784.099 1456.96 756.165 1419.08 756.165C1381.2 756.165 1350.32 784.099 1350.32 818.753C1350.32 835.989 1357.99 860.622 1370.31 880.935C1376.49 891.104 1383.86 900.242 1392.08 906.848C1396.24 910.196 1400.64 912.903 1405.22 914.76C1352.82 908.588 1312.47 867.885 1312.47 818.753C1312.47 765.371 1360.11 721.937 1419.08 721.937C1478.05 721.937 1525.68 765.371 1525.68 818.753ZM1414.11 915.185C1406.84 914.061 1399.85 910.527 1393.33 905.289C1385.34 898.87 1378.11 889.932 1372.02 879.898C1359.83 859.807 1352.32 835.531 1352.32 818.753C1352.32 785.379 1382.12 758.165 1419.08 758.165C1456.04 758.165 1485.83 785.379 1485.83 818.753C1485.83 835.531 1478.32 859.807 1466.13 879.898C1460.04 889.932 1452.81 898.87 1444.82 905.289C1438.31 910.527 1431.32 914.061 1424.04 915.185C1424.54 914.699 1425.02 914.152 1425.49 913.557C1427.38 911.134 1429.18 907.71 1430.86 903.637C1434.23 895.481 1437.25 884.501 1439.78 873.131C1444.83 850.406 1447.98 825.867 1447.98 818.753C1447.98 804.108 1434.95 792.394 1419.08 792.394C1403.21 792.394 1390.18 804.108 1390.18 818.753C1390.18 825.867 1393.32 850.406 1398.37 873.131C1400.9 884.501 1403.92 895.481 1407.29 903.637C1408.98 907.71 1410.77 911.134 1412.67 913.557C1413.13 914.152 1413.62 914.699 1414.11 915.185ZM1392.18 818.753C1392.18 805.387 1404.13 794.394 1419.08 794.394C1434.02 794.394 1445.98 805.387 1445.98 818.753C1445.98 825.645 1442.87 850.014 1437.83 872.696C1435.31 884.029 1432.32 894.877 1429.01 902.873C1427.36 906.877 1425.65 910.109 1423.91 912.324C1422.15 914.571 1420.53 915.569 1419.08 915.569C1417.62 915.569 1416 914.571 1414.24 912.324C1412.51 910.109 1410.8 906.877 1409.14 902.873C1405.84 894.877 1402.85 884.029 1400.33 872.696C1395.28 850.014 1392.18 825.645 1392.18 818.753Z" stroke="#007D3A" stroke-opacity="0.25" stroke-width="2"/>
    <path d="M240.384 1025.18C240.384 951.793 305.865 892.14 386.846 892.14C467.826 892.14 533.307 951.793 533.307 1025.18C533.307 1061.83 517.004 1085.96 490.622 1100.98C469.987 1112.74 443.151 1118.94 413.056 1121.1C460.325 1110.44 495.453 1071.6 495.453 1025.18C495.453 970.522 446.736 926.368 386.846 926.368C326.955 926.368 278.238 970.522 278.238 1025.18C278.238 1071.6 313.367 1110.44 360.635 1121.1C330.54 1118.94 303.704 1112.74 283.069 1100.98C256.687 1085.96 240.384 1061.83 240.384 1025.18ZM493.453 1025.18C493.453 1074.32 453.1 1115.02 400.7 1121.19C405.28 1119.33 409.678 1116.63 413.844 1113.28C422.066 1106.67 429.438 1097.53 435.609 1087.37C447.937 1067.05 455.598 1042.42 455.598 1025.18C455.598 990.53 424.725 962.596 386.846 962.596C348.966 962.596 318.093 990.53 318.093 1025.18C318.093 1042.42 325.754 1067.05 338.082 1087.37C344.253 1097.53 351.625 1106.67 359.847 1113.28C364.013 1116.63 368.411 1119.33 372.991 1121.19C320.591 1115.02 280.238 1074.32 280.238 1025.18C280.238 971.802 327.876 928.368 386.846 928.368C445.815 928.368 493.453 971.802 493.453 1025.18ZM381.882 1121.62C374.608 1120.49 367.618 1116.96 361.1 1111.72C353.11 1105.3 345.882 1096.36 339.792 1086.33C327.599 1066.24 320.093 1041.96 320.093 1025.18C320.093 991.81 349.887 964.596 386.846 964.596C423.804 964.596 453.598 991.81 453.598 1025.18C453.598 1041.96 446.092 1066.24 433.899 1086.33C427.809 1096.36 420.581 1105.3 412.592 1111.72C406.073 1116.96 399.083 1120.49 391.809 1121.62C392.308 1121.13 392.79 1120.58 393.255 1119.99C395.153 1117.56 396.946 1114.14 398.629 1110.07C402 1101.91 405.02 1090.93 407.549 1079.56C412.602 1056.84 415.744 1032.3 415.744 1025.18C415.744 1010.54 402.714 998.824 386.846 998.824C370.977 998.824 357.947 1010.54 357.947 1025.18C357.947 1032.3 361.089 1056.84 366.142 1079.56C368.671 1090.93 371.691 1101.91 375.062 1110.07C376.745 1114.14 378.538 1117.56 380.436 1119.99C380.901 1120.58 381.383 1121.13 381.882 1121.62ZM359.947 1025.18C359.947 1011.82 371.898 1000.82 386.846 1000.82C401.793 1000.82 413.744 1011.82 413.744 1025.18C413.744 1032.08 410.64 1056.44 405.596 1079.13C403.076 1090.46 400.085 1101.31 396.781 1109.3C395.126 1113.31 393.415 1116.54 391.681 1118.75C389.921 1121 388.299 1122 386.846 1122C385.392 1122 383.77 1121 382.01 1118.75C380.276 1116.54 378.565 1113.31 376.911 1109.3C373.606 1101.31 370.615 1090.46 368.095 1079.13C363.051 1056.44 359.947 1032.08 359.947 1025.18Z" stroke="#007D3A" stroke-opacity="0.25" stroke-width="2"/>
    <path d="M-54.5384 1025.18C-54.5384 951.793 10.9427 892.14 91.9232 892.14C172.904 892.14 238.385 951.793 238.385 1025.18C238.385 1061.83 222.081 1085.96 195.699 1100.98C175.064 1112.74 148.229 1118.94 118.134 1121.1C165.402 1110.44 200.53 1071.6 200.53 1025.18C200.53 970.522 151.813 926.368 91.9232 926.368C32.033 926.368 -16.684 970.522 -16.684 1025.18C-16.684 1071.6 18.4442 1110.44 65.7125 1121.1C35.6173 1118.94 8.78206 1112.74 -11.853 1100.98C-38.2351 1085.96 -54.5384 1061.83 -54.5384 1025.18ZM198.53 1025.18C198.53 1074.32 158.178 1115.02 105.778 1121.19C110.358 1119.33 114.756 1116.63 118.922 1113.28C127.144 1106.67 134.515 1097.53 140.686 1087.37C153.015 1067.05 160.676 1042.42 160.676 1025.18C160.676 990.53 129.802 962.596 91.9232 962.596C54.0441 962.596 23.1705 990.53 23.1705 1025.18C23.1705 1042.42 30.8314 1067.05 43.1599 1087.37C49.331 1097.53 56.7023 1106.67 64.9244 1113.28C69.0905 1116.63 73.4884 1119.33 78.0688 1121.19C25.6685 1115.02 -14.6839 1074.32 -14.6839 1025.18C-14.6839 971.802 32.9538 928.368 91.9232 928.368C150.893 928.368 198.53 971.802 198.53 1025.18ZM86.9595 1121.62C79.6856 1120.49 72.6954 1116.96 66.1771 1111.72C58.1877 1105.3 50.9595 1096.36 44.8697 1086.33C32.6766 1066.24 25.1705 1041.96 25.1705 1025.18C25.1705 991.81 54.9648 964.596 91.9232 964.596C128.882 964.596 158.676 991.81 158.676 1025.18C158.676 1041.96 151.17 1066.24 138.977 1086.33C132.887 1096.36 125.659 1105.3 117.669 1111.72C111.151 1116.96 104.161 1120.49 96.8869 1121.62C97.3853 1121.13 97.8673 1120.58 98.3329 1119.99C100.231 1117.56 102.023 1114.14 103.707 1110.07C107.077 1101.91 110.098 1090.93 112.626 1079.56C117.68 1056.84 120.821 1032.3 120.821 1025.18C120.821 1010.54 107.791 998.824 91.9232 998.824C76.0551 998.824 63.025 1010.54 63.025 1025.18C63.025 1032.3 66.1668 1056.84 71.22 1079.56C73.7485 1090.93 76.7691 1101.91 80.1398 1110.07C81.8229 1114.14 83.6157 1117.56 85.5134 1119.99C85.979 1120.58 86.4611 1121.13 86.9595 1121.62ZM65.025 1025.18C65.025 1011.82 76.9758 1000.82 91.9232 1000.82C106.871 1000.82 118.821 1011.82 118.821 1025.18C118.821 1032.08 115.718 1056.44 110.674 1079.13C108.154 1090.46 105.163 1101.31 101.858 1109.3C100.204 1113.31 98.4928 1116.54 96.7583 1118.75C94.9987 1121 93.3764 1122 91.9232 1122C90.47 1122 88.8477 1121 87.088 1118.75C85.3535 1116.54 83.6427 1113.31 81.9881 1109.3C78.6835 1101.31 75.6925 1090.46 73.1724 1079.13C68.1285 1056.44 65.025 1032.08 65.025 1025.18Z" stroke="#007D3A" stroke-opacity="0.25" stroke-width="2"/>
    <path d="M535.307 1025.18C535.307 951.793 600.788 892.14 681.769 892.14C762.749 892.14 828.23 951.793 828.23 1025.18C828.23 1061.83 811.927 1085.96 785.545 1100.98C764.91 1112.74 738.075 1118.94 707.979 1121.1C755.248 1110.44 790.376 1071.6 790.376 1025.18C790.376 970.522 741.659 926.368 681.769 926.368C621.878 926.368 573.161 970.522 573.161 1025.18C573.161 1071.6 608.29 1110.44 655.558 1121.1C625.463 1118.94 598.628 1112.74 577.992 1100.98C551.61 1085.96 535.307 1061.83 535.307 1025.18ZM788.376 1025.18C788.376 1074.32 748.023 1115.02 695.623 1121.19C700.203 1119.33 704.601 1116.63 708.767 1113.28C716.99 1106.67 724.361 1097.53 730.532 1087.37C742.86 1067.05 750.521 1042.42 750.521 1025.18C750.521 990.53 719.648 962.596 681.769 962.596C643.89 962.596 613.016 990.53 613.016 1025.18C613.016 1042.42 620.677 1067.05 633.005 1087.37C639.176 1097.53 646.548 1106.67 654.77 1113.28C658.936 1116.63 663.334 1119.33 667.914 1121.19C615.514 1115.02 575.162 1074.32 575.162 1025.18C575.162 971.802 622.799 928.368 681.769 928.368C740.738 928.368 788.376 971.802 788.376 1025.18ZM676.805 1121.62C669.531 1120.49 662.541 1116.96 656.023 1111.72C648.033 1105.3 640.805 1096.36 634.715 1086.33C622.522 1066.24 615.016 1041.96 615.016 1025.18C615.016 991.81 644.81 964.596 681.769 964.596C718.727 964.596 748.521 991.81 748.521 1025.18C748.521 1041.96 741.015 1066.24 728.822 1086.33C722.732 1096.36 715.504 1105.3 707.515 1111.72C700.996 1116.96 694.006 1120.49 686.732 1121.62C687.231 1121.13 687.713 1120.58 688.178 1119.99C690.076 1117.56 691.869 1114.14 693.552 1110.07C696.923 1101.91 699.943 1090.93 702.472 1079.56C707.525 1056.84 710.667 1032.3 710.667 1025.18C710.667 1010.54 697.637 998.824 681.769 998.824C665.901 998.824 652.87 1010.54 652.87 1025.18C652.87 1032.3 656.012 1056.84 661.066 1079.56C663.594 1090.93 666.615 1101.91 669.985 1110.07C671.668 1114.14 673.461 1117.56 675.359 1119.99C675.824 1120.58 676.307 1121.13 676.805 1121.62ZM654.87 1025.18C654.87 1011.82 666.821 1000.82 681.769 1000.82C696.716 1000.82 708.667 1011.82 708.667 1025.18C708.667 1032.08 705.563 1056.44 700.519 1079.13C697.999 1090.46 695.008 1101.31 691.704 1109.3C690.049 1113.31 688.338 1116.54 686.604 1118.75C684.844 1121 683.222 1122 681.769 1122C680.315 1122 678.693 1121 676.933 1118.75C675.199 1116.54 673.488 1113.31 671.834 1109.3C668.529 1101.31 665.538 1090.46 663.018 1079.13C657.974 1056.44 654.87 1032.08 654.87 1025.18Z" stroke="#007D3A" stroke-opacity="0.25" stroke-width="2"/>
    <path d="M830.231 1025.18C830.231 951.793 895.712 892.14 976.692 892.14C1057.67 892.14 1123.15 951.793 1123.15 1025.18C1123.15 1061.83 1106.85 1085.96 1080.47 1100.98C1059.83 1112.74 1033 1118.94 1002.9 1121.1C1050.17 1110.44 1085.3 1071.6 1085.3 1025.18C1085.3 970.522 1036.58 926.368 976.692 926.368C916.802 926.368 868.085 970.522 868.085 1025.18C868.085 1071.6 903.213 1110.44 950.482 1121.1C920.386 1118.94 893.551 1112.74 872.916 1100.98C846.534 1085.96 830.231 1061.83 830.231 1025.18ZM1083.3 1025.18C1083.3 1074.32 1042.95 1115.02 990.547 1121.19C995.127 1119.33 999.525 1116.63 1003.69 1113.28C1011.91 1106.67 1019.28 1097.53 1025.46 1087.37C1037.78 1067.05 1045.44 1042.42 1045.44 1025.18C1045.44 990.53 1014.57 962.596 976.692 962.596C938.813 962.596 907.94 990.53 907.94 1025.18C907.94 1042.42 915.6 1067.05 927.929 1087.37C934.1 1097.53 941.471 1106.67 949.693 1113.28C953.86 1116.63 958.257 1119.33 962.838 1121.19C910.438 1115.02 870.085 1074.32 870.085 1025.18C870.085 971.802 917.723 928.368 976.692 928.368C1035.66 928.368 1083.3 971.802 1083.3 1025.18ZM971.729 1121.62C964.455 1120.49 957.464 1116.96 950.946 1111.72C942.957 1105.3 935.729 1096.36 929.639 1086.33C917.446 1066.24 909.94 1041.96 909.94 1025.18C909.94 991.81 939.734 964.596 976.692 964.596C1013.65 964.596 1043.44 991.81 1043.44 1025.18C1043.44 1041.96 1035.94 1066.24 1023.75 1086.33C1017.66 1096.36 1010.43 1105.3 1002.44 1111.72C995.92 1116.96 988.93 1120.49 981.656 1121.62C982.154 1121.13 982.636 1120.58 983.102 1119.99C985 1117.56 986.793 1114.14 988.476 1110.07C991.846 1101.91 994.867 1090.93 997.395 1079.56C1002.45 1056.84 1005.59 1032.3 1005.59 1025.18C1005.59 1010.54 992.56 998.824 976.692 998.824C960.824 998.824 947.794 1010.54 947.794 1025.18C947.794 1032.3 950.936 1056.84 955.989 1079.56C958.518 1090.93 961.538 1101.91 964.909 1110.07C966.592 1114.14 968.385 1117.56 970.282 1119.99C970.748 1120.58 971.23 1121.13 971.729 1121.62ZM949.794 1025.18C949.794 1011.82 961.745 1000.82 976.692 1000.82C991.64 1000.82 1003.59 1011.82 1003.59 1025.18C1003.59 1032.08 1000.49 1056.44 995.443 1079.13C992.923 1090.46 989.932 1101.31 986.627 1109.3C984.973 1113.31 983.262 1116.54 981.527 1118.75C979.768 1121 978.145 1122 976.692 1122C975.239 1122 973.617 1121 971.857 1118.75C970.123 1116.54 968.412 1113.31 966.757 1109.3C963.453 1101.31 960.462 1090.46 957.941 1079.13C952.898 1056.44 949.794 1032.08 949.794 1025.18Z" stroke="#007D3A" stroke-opacity="0.25" stroke-width="2"/>
    <path d="M1125.15 1025.18C1125.15 951.793 1190.64 892.14 1271.62 892.14C1352.6 892.14 1418.08 951.793 1418.08 1025.18C1418.08 1061.83 1401.77 1085.96 1375.39 1100.98C1354.76 1112.74 1327.92 1118.94 1297.83 1121.1C1345.1 1110.44 1380.22 1071.6 1380.22 1025.18C1380.22 970.522 1331.51 926.368 1271.62 926.368C1211.73 926.368 1163.01 970.522 1163.01 1025.18C1163.01 1071.6 1198.14 1110.44 1245.41 1121.1C1215.31 1118.94 1188.47 1112.74 1167.84 1100.98C1141.46 1085.96 1125.15 1061.83 1125.15 1025.18ZM1378.22 1025.18C1378.22 1074.32 1337.87 1115.02 1285.47 1121.19C1290.05 1119.33 1294.45 1116.63 1298.61 1113.28C1306.84 1106.67 1314.21 1097.53 1320.38 1087.37C1332.71 1067.05 1340.37 1042.42 1340.37 1025.18C1340.37 990.53 1309.5 962.596 1271.62 962.596C1233.74 962.596 1202.86 990.53 1202.86 1025.18C1202.86 1042.42 1210.52 1067.05 1222.85 1087.37C1229.02 1097.53 1236.4 1106.67 1244.62 1113.28C1248.78 1116.63 1253.18 1119.33 1257.76 1121.19C1205.36 1115.02 1165.01 1074.32 1165.01 1025.18C1165.01 971.802 1212.65 928.368 1271.62 928.368C1330.59 928.368 1378.22 971.802 1378.22 1025.18ZM1266.65 1121.62C1259.38 1120.49 1252.39 1116.96 1245.87 1111.72C1237.88 1105.3 1230.65 1096.36 1224.56 1086.33C1212.37 1066.24 1204.86 1041.96 1204.86 1025.18C1204.86 991.81 1234.66 964.596 1271.62 964.596C1308.57 964.596 1338.37 991.81 1338.37 1025.18C1338.37 1041.96 1330.86 1066.24 1318.67 1086.33C1312.58 1096.36 1305.35 1105.3 1297.36 1111.72C1290.84 1116.96 1283.85 1120.49 1276.58 1121.62C1277.08 1121.13 1277.56 1120.58 1278.03 1119.99C1279.92 1117.56 1281.72 1114.14 1283.4 1110.07C1286.77 1101.91 1289.79 1090.93 1292.32 1079.56C1297.37 1056.84 1300.51 1032.3 1300.51 1025.18C1300.51 1010.54 1287.48 998.824 1271.62 998.824C1255.75 998.824 1242.72 1010.54 1242.72 1025.18C1242.72 1032.3 1245.86 1056.84 1250.91 1079.56C1253.44 1090.93 1256.46 1101.91 1259.83 1110.07C1261.52 1114.14 1263.31 1117.56 1265.21 1119.99C1265.67 1120.58 1266.15 1121.13 1266.65 1121.62ZM1244.72 1025.18C1244.72 1011.82 1256.67 1000.82 1271.62 1000.82C1286.56 1000.82 1298.51 1011.82 1298.51 1025.18C1298.51 1032.08 1295.41 1056.44 1290.37 1079.13C1287.85 1090.46 1284.86 1101.31 1281.55 1109.3C1279.9 1113.31 1278.19 1116.54 1276.45 1118.75C1274.69 1121 1273.07 1122 1271.62 1122C1270.16 1122 1268.54 1121 1266.78 1118.75C1265.05 1116.54 1263.34 1113.31 1261.68 1109.3C1258.38 1101.31 1255.39 1090.46 1252.87 1079.13C1247.82 1056.44 1244.72 1032.08 1244.72 1025.18Z" stroke="#007D3A" stroke-opacity="0.25" stroke-width="2"/>
    <path d="M1420.08 1025.18C1420.08 951.793 1485.56 892.14 1566.54 892.14C1647.52 892.14 1713 951.793 1713 1025.18C1713 1061.83 1696.7 1085.96 1670.31 1100.98C1649.68 1112.74 1622.84 1118.94 1592.75 1121.1C1640.02 1110.44 1675.15 1071.6 1675.15 1025.18C1675.15 970.522 1626.43 926.368 1566.54 926.368C1506.65 926.368 1457.93 970.522 1457.93 1025.18C1457.93 1071.6 1493.06 1110.44 1540.33 1121.1C1510.23 1118.94 1483.4 1112.74 1462.76 1100.98C1436.38 1085.96 1420.08 1061.83 1420.08 1025.18ZM1673.15 1025.18C1673.15 1074.32 1632.79 1115.02 1580.39 1121.19C1584.97 1119.33 1589.37 1116.63 1593.54 1113.28C1601.76 1106.67 1609.13 1097.53 1615.3 1087.37C1627.63 1067.05 1635.29 1042.42 1635.29 1025.18C1635.29 990.53 1604.42 962.596 1566.54 962.596C1528.66 962.596 1497.79 990.53 1497.79 1025.18C1497.79 1042.42 1505.45 1067.05 1517.78 1087.37C1523.95 1097.53 1531.32 1106.67 1539.54 1113.28C1543.71 1116.63 1548.1 1119.33 1552.68 1121.19C1500.28 1115.02 1459.93 1074.32 1459.93 1025.18C1459.93 971.802 1507.57 928.368 1566.54 928.368C1625.51 928.368 1673.15 971.802 1673.15 1025.18ZM1561.57 1121.62C1554.3 1120.49 1547.31 1116.96 1540.79 1111.72C1532.8 1105.3 1525.57 1096.36 1519.48 1086.33C1507.29 1066.24 1499.79 1041.96 1499.79 1025.18C1499.79 991.81 1529.58 964.596 1566.54 964.596C1603.5 964.596 1633.29 991.81 1633.29 1025.18C1633.29 1041.96 1625.78 1066.24 1613.59 1086.33C1607.5 1096.36 1600.27 1105.3 1592.28 1111.72C1585.77 1116.96 1578.78 1120.49 1571.5 1121.62C1572 1121.13 1572.48 1120.58 1572.95 1119.99C1574.85 1117.56 1576.64 1114.14 1578.32 1110.07C1581.69 1101.91 1584.71 1090.93 1587.24 1079.56C1592.29 1056.84 1595.44 1032.3 1595.44 1025.18C1595.44 1010.54 1582.41 998.824 1566.54 998.824C1550.67 998.824 1537.64 1010.54 1537.64 1025.18C1537.64 1032.3 1540.78 1056.84 1545.84 1079.56C1548.36 1090.93 1551.38 1101.91 1554.76 1110.07C1556.44 1114.14 1558.23 1117.56 1560.13 1119.99C1560.59 1120.58 1561.08 1121.13 1561.57 1121.62ZM1539.64 1025.18C1539.64 1011.82 1551.59 1000.82 1566.54 1000.82C1581.49 1000.82 1593.44 1011.82 1593.44 1025.18C1593.44 1032.08 1590.33 1056.44 1585.29 1079.13C1582.77 1090.46 1579.78 1101.31 1576.47 1109.3C1574.82 1113.31 1573.11 1116.54 1571.37 1118.75C1569.61 1121 1567.99 1122 1566.54 1122C1565.09 1122 1563.46 1121 1561.7 1118.75C1559.97 1116.54 1558.26 1113.31 1556.6 1109.3C1553.3 1101.31 1550.31 1090.46 1547.79 1079.13C1542.74 1056.44 1539.64 1032.08 1539.64 1025.18Z" stroke="#007D3A" stroke-opacity="0.25" stroke-width="2"/>
  </g>
</svg>
