<svg width="123" height="46" viewBox="0 0 123 46" fill="none"
    xmlns="http://www.w3.org/2000/svg">
    <path d="M61.815 36.49C59.925 36.49 58.2567 36.1517 56.81 35.475C55.3633 34.7983 54.2317 33.83 53.415 32.57C52.5983 31.31 52.19 29.7933 52.19 28.02V27.04H56.74V28.02C56.74 29.49 57.195 30.5983 58.105 31.345C59.015 32.0683 60.2517 32.43 61.815 32.43C63.4017 32.43 64.58 32.115 65.35 31.485C66.1433 30.855 66.54 30.05 66.54 29.07C66.54 28.3933 66.3417 27.845 65.945 27.425C65.5717 27.005 65.0117 26.6667 64.265 26.41C63.5417 26.13 62.655 25.8733 61.605 25.64L60.8 25.465C59.12 25.0917 57.6733 24.625 56.46 24.065C55.27 23.4817 54.3483 22.7233 53.695 21.79C53.065 20.8567 52.75 19.6433 52.75 18.15C52.75 16.6567 53.1 15.385 53.8 14.335C54.5233 13.2617 55.5267 12.445 56.81 11.885C58.1167 11.3017 59.645 11.01 61.395 11.01C63.145 11.01 64.6967 11.3133 66.05 11.92C67.4267 12.5033 68.5 13.39 69.27 14.58C70.0633 15.7467 70.46 17.2167 70.46 18.99V20.04H65.91V18.99C65.91 18.0567 65.7233 17.31 65.35 16.75C65 16.1667 64.4867 15.7467 63.81 15.49C63.1333 15.21 62.3283 15.07 61.395 15.07C59.995 15.07 58.9567 15.3383 58.28 15.875C57.6267 16.3883 57.3 17.1 57.3 18.01C57.3 18.6167 57.4517 19.13 57.755 19.55C58.0817 19.97 58.56 20.32 59.19 20.6C59.82 20.88 60.625 21.125 61.605 21.335L62.41 21.51C64.16 21.8833 65.6767 22.3617 66.96 22.945C68.2667 23.5283 69.2817 24.2983 70.005 25.255C70.7283 26.2117 71.09 27.4367 71.09 28.93C71.09 30.4233 70.705 31.7417 69.935 32.885C69.1883 34.005 68.115 34.8917 66.715 35.545C65.3383 36.175 63.705 36.49 61.815 36.49ZM82.9356 36.49C81.2089 36.49 79.6573 36.14 78.2806 35.44C76.9039 34.74 75.8189 33.725 75.0256 32.395C74.2323 31.065 73.8356 29.4667 73.8356 27.6V27.04C73.8356 25.1733 74.2323 23.575 75.0256 22.245C75.8189 20.915 76.9039 19.9 78.2806 19.2C79.6573 18.5 81.2089 18.15 82.9356 18.15C84.6623 18.15 86.2139 18.5 87.5906 19.2C88.9673 19.9 90.0523 20.915 90.8456 22.245C91.6389 23.575 92.0356 25.1733 92.0356 27.04V27.6C92.0356 29.4667 91.6389 31.065 90.8456 32.395C90.0523 33.725 88.9673 34.74 87.5906 35.44C86.2139 36.14 84.6623 36.49 82.9356 36.49ZM82.9356 32.57C84.2889 32.57 85.4089 32.1383 86.2956 31.275C87.1823 30.3883 87.6256 29.1283 87.6256 27.495V27.145C87.6256 25.5117 87.1823 24.2633 86.2956 23.4C85.4323 22.5133 84.3123 22.07 82.9356 22.07C81.5823 22.07 80.4623 22.5133 79.5756 23.4C78.6889 24.2633 78.2456 25.5117 78.2456 27.145V27.495C78.2456 29.1283 78.6889 30.3883 79.5756 31.275C80.4623 32.1383 81.5823 32.57 82.9356 32.57ZM96.1063 36V18.64H100.516V36H96.1063ZM98.3113 16.61C97.5179 16.61 96.8413 16.3533 96.2813 15.84C95.7446 15.3267 95.4763 14.65 95.4763 13.81C95.4763 12.97 95.7446 12.2933 96.2813 11.78C96.8413 11.2667 97.5179 11.01 98.3113 11.01C99.1279 11.01 99.8046 11.2667 100.341 11.78C100.878 12.2933 101.146 12.97 101.146 13.81C101.146 14.65 100.878 15.3267 100.341 15.84C99.8046 16.3533 99.1279 16.61 98.3113 16.61ZM105.403 36V11.5H109.813V36H105.403ZM117.465 36.49C116.532 36.49 115.738 36.1867 115.085 35.58C114.455 34.95 114.14 34.145 114.14 33.165C114.14 32.185 114.455 31.3917 115.085 30.785C115.738 30.155 116.532 29.84 117.465 29.84C118.422 29.84 119.215 30.155 119.845 30.785C120.475 31.3917 120.79 32.185 120.79 33.165C120.79 34.145 120.475 34.95 119.845 35.58C119.215 36.1867 118.422 36.49 117.465 36.49Z" fill="#071B08"/>
    <path d="M45.1163 5.61417C41.3423 5.68498 37.1359 5.97487 33.7493 7.96309C30.4114 9.92267 28.1299 13.6804 28.2954 19.6541C27.6499 20.8356 27.0877 22.1615 26.6348 23.6769C26.344 23.0755 26.039 22.4866 25.7033 21.9355C25.694 18.6859 25.2173 16.1715 24.2994 14.2135C23.3725 12.2361 21.9704 10.8605 20.3305 9.97459C17.0507 8.2027 13.0239 8.19876 8.99048 7.77424C8.9052 7.76581 8.81932 7.76581 8.73405 7.77424C8.27661 7.81764 7.87645 8.1 7.68205 8.51644C7.48799 8.93259 7.52836 9.42079 7.78902 9.79925C9.85198 12.7777 10.4131 16.0611 11.6904 18.9384C12.329 20.3772 13.196 21.7369 14.6065 22.7051C16.0168 23.673 17.889 24.1901 20.3304 24.1901C21.405 24.1901 22.4772 24.0241 23.719 23.6365C24.3552 24.7617 24.8985 26.0033 25.339 27.403C23.4418 27.8306 21.7329 28.9814 20.6679 30.724C18.7945 30.8422 17.1595 31.3843 15.9294 32.263C14.542 33.2541 13.6072 34.6876 13.6072 36.2858C13.6075 36.6296 13.744 36.9593 13.9869 37.2022C14.2301 37.4454 14.5598 37.5819 14.9033 37.5819H39.0953C39.4388 37.5819 39.7685 37.4454 40.0117 37.2022C40.2545 36.9593 40.391 36.6296 40.3913 36.2858C40.3913 34.6875 39.4566 33.254 38.0692 32.263C36.8392 31.3842 35.204 30.8421 33.3306 30.724C32.2256 28.9157 30.4266 27.7489 28.4438 27.3626C28.8744 24.9323 29.4819 23.0116 30.2663 21.4359C31.3466 21.7631 32.4166 22.0301 33.4791 22.0301C35.9058 22.0301 37.8058 21.557 39.2977 20.653C40.7896 19.7489 41.8048 18.4375 42.5513 17.008C44.0438 14.1489 44.6721 10.7543 46.3041 7.49008C46.5078 7.08358 46.4837 6.60024 46.2405 6.21599C45.9974 5.83178 45.5707 5.60337 45.1163 5.61361L45.1163 5.61417ZM43.1182 8.30059C41.9237 11.2094 41.2475 13.9082 40.2563 15.8067C39.6494 16.9692 38.9645 17.8178 37.9613 18.4256C36.9582 19.0334 35.5756 19.4381 33.4792 19.4381C33.0564 19.4381 32.4308 19.3058 31.7106 19.1142C31.8998 18.8649 32.0903 18.6175 32.2913 18.3852C34.1969 16.1794 36.717 14.6236 39.7702 12.7691C40.1173 12.5718 40.3539 12.2255 40.412 11.8305C40.4699 11.4354 40.3427 11.0358 40.067 10.7471C39.7913 10.4585 39.3977 10.3129 39.0006 10.3527C38.7936 10.3726 38.5947 10.4419 38.4202 10.5552C35.7708 12.1643 33.3297 13.646 31.2652 15.6985C31.8537 12.9379 33.22 11.2917 35.0721 10.2041C37.226 8.93936 40.1382 8.47442 43.1181 8.30054L43.1182 8.30059ZM11.2443 10.6227C14.3403 10.9193 17.1729 11.2215 19.0882 12.256C20.3104 12.9162 21.2572 13.8136 21.9638 15.3207C22.3218 16.0846 22.5888 17.0627 22.7738 18.2232C20.954 16.3862 18.81 14.8648 16.3882 13.5385C16.1625 13.4117 15.9039 13.3553 15.6457 13.3767C15.2681 13.4047 14.9216 13.597 14.6974 13.9022C14.4732 14.2075 14.3939 14.5956 14.4801 14.9645C14.5666 15.3333 14.8098 15.6461 15.1464 15.8203C18.0235 17.3954 20.3601 19.1121 22.1664 21.3417C21.5076 21.5051 20.9104 21.5982 20.3303 21.5982C18.2387 21.5982 16.967 21.1826 16.0778 20.5721C15.1885 19.9619 14.6018 19.0922 14.0664 17.8857C13.2283 15.9981 12.619 13.3608 11.2446 10.6228L11.2443 10.6227ZM26.9992 29.8059C28.9247 29.8059 30.6375 30.7428 31.427 32.4926C31.5292 32.7222 31.6958 32.9172 31.9068 33.0537C32.1177 33.1902 32.3639 33.2628 32.6152 33.2619C34.3193 33.2619 35.6765 33.7398 36.557 34.3691C36.8355 34.5676 36.9856 34.7804 37.1645 34.9901H16.8336C17.0125 34.7804 17.1626 34.5676 17.4411 34.3691C18.3216 33.7399 19.6788 33.2619 21.3829 33.2619C21.6342 33.2628 21.8804 33.1902 22.0913 33.0537C22.3023 32.9172 22.4689 32.7222 22.5711 32.4926C23.3606 30.7427 25.0734 29.8059 26.9989 29.8059H26.9992Z" fill="#74FA6D"/>
</svg>
