<svg width="130" height="130" viewBox="0 0 75 26" fill="none" xmlns="http://www.w3.org/2000/svg">
<path d="M30.1383 20.5156V7.11719H38.7516V9.41406H32.6648V12.6105H38.2156V14.9074H32.6648V18.2187H38.8664V20.5156H30.1383ZM44.6413 20.7836C43.8885 20.7836 43.1803 20.5986 42.5167 20.2285C41.866 19.8457 41.3428 19.2906 40.9472 18.5633C40.5516 17.8359 40.3538 16.9555 40.3538 15.9219V15.6156C40.3538 14.582 40.5516 13.7016 40.9472 12.9742C41.3428 12.2469 41.866 11.6982 42.5167 11.3281C43.1675 10.9453 43.8757 10.7539 44.6413 10.7539C45.2156 10.7539 45.6941 10.8241 46.0769 10.9645C46.4725 11.0921 46.7915 11.2579 47.0339 11.4621C47.2764 11.6663 47.4614 11.8832 47.589 12.1129H47.9335V7.11719H50.3452V20.5156H47.9718V19.3672H47.6273C47.4104 19.7245 47.0722 20.0499 46.6128 20.3434C46.1662 20.6368 45.5091 20.7836 44.6413 20.7836ZM45.3687 18.6781C46.1088 18.6781 46.7277 18.4421 47.2253 17.9699C47.723 17.485 47.9718 16.7832 47.9718 15.8645V15.673C47.9718 14.7543 47.723 14.0589 47.2253 13.5867C46.7404 13.1018 46.1216 12.8594 45.3687 12.8594C44.6286 12.8594 44.0097 13.1018 43.512 13.5867C43.0144 14.0589 42.7656 14.7543 42.7656 15.673V15.8645C42.7656 16.7832 43.0144 17.485 43.512 17.9699C44.0097 18.4421 44.6286 18.6781 45.3687 18.6781ZM57.3449 20.7836C56.4006 20.7836 55.5648 20.5858 54.8375 20.1902C54.1229 19.7819 53.5614 19.2141 53.1531 18.4867C52.7575 17.7466 52.5597 16.8789 52.5597 15.8836V15.6539C52.5597 14.6586 52.7575 13.7973 53.1531 13.0699C53.5487 12.3298 54.1037 11.762 54.8183 11.3664C55.5329 10.9581 56.3623 10.7539 57.3066 10.7539C58.2381 10.7539 59.0484 10.9645 59.7375 11.3855C60.4265 11.7939 60.9625 12.3681 61.3453 13.1082C61.7281 13.8355 61.9195 14.6841 61.9195 15.6539V16.477H55.0097C55.0353 17.1277 55.2777 17.6573 55.7371 18.0656C56.1964 18.474 56.7579 18.6781 57.4214 18.6781C58.0978 18.6781 58.5954 18.5314 58.9144 18.2379C59.2334 17.9444 59.4759 17.619 59.6418 17.2617L61.6132 18.2953C61.4346 18.6271 61.173 18.9908 60.8285 19.3863C60.4967 19.7691 60.0501 20.1009 59.4886 20.3816C58.9272 20.6496 58.2126 20.7836 57.3449 20.7836ZM55.0289 14.6777H59.4695C59.4185 14.129 59.1951 13.6888 58.7996 13.357C58.4168 13.0253 57.9127 12.8594 57.2875 12.8594C56.6367 12.8594 56.1199 13.0253 55.7371 13.357C55.3543 13.6888 55.1182 14.129 55.0289 14.6777ZM64.0661 20.5156V11.0219H66.4395V12.266H66.7841C66.9372 11.9342 67.2243 11.6216 67.6454 11.3281C68.0665 11.0219 68.7045 10.8687 69.5594 10.8687C70.2995 10.8687 70.944 11.041 71.4926 11.3855C72.0541 11.7173 72.488 12.1831 72.7942 12.7828C73.1005 13.3698 73.2536 14.0589 73.2536 14.85V20.5156H70.8419V15.0414C70.8419 14.3268 70.6632 13.7909 70.3059 13.4336C69.9614 13.0763 69.4637 12.8977 68.813 12.8977C68.0729 12.8977 67.4986 13.1465 67.0903 13.6441C66.682 14.129 66.4778 14.8117 66.4778 15.6922V20.5156H64.0661Z" fill="#071B08"/>
<path d="M25.6575 4.04004C23.5936 4.07876 21.2932 4.2373 19.4411 5.3246C17.6157 6.39625 16.368 8.45124 16.4585 11.7181C16.1055 12.3643 15.798 13.0894 15.5503 13.9181C15.3913 13.5892 15.2245 13.2672 15.041 12.9658C15.0359 11.1886 14.7752 9.81356 14.2732 8.7428C13.7663 7.66141 12.9995 6.90912 12.1027 6.42464C10.3091 5.45564 8.10691 5.45349 5.90114 5.22133C5.8545 5.21671 5.80753 5.21671 5.7609 5.22133C5.51074 5.24506 5.2919 5.39947 5.18559 5.62722C5.07946 5.8548 5.10154 6.12178 5.24409 6.32875C6.37227 7.95757 6.67914 9.7532 7.37768 11.3267C7.72688 12.1136 8.20101 12.8571 8.97241 13.3866C9.74364 13.916 10.7675 14.1987 12.1027 14.1987C12.6904 14.1987 13.2767 14.1079 13.9558 13.896C14.3037 14.5114 14.6008 15.1903 14.8417 15.9558C13.8042 16.1896 12.8696 16.819 12.2872 17.772C11.2627 17.8366 10.3686 18.1331 9.69584 18.6136C8.93714 19.1556 8.42591 19.9395 8.42591 20.8136C8.42608 21.0016 8.50073 21.1819 8.63355 21.3147C8.76654 21.4477 8.94683 21.5224 9.1347 21.5224H22.3647C22.5526 21.5224 22.7329 21.4477 22.8658 21.3147C22.9987 21.1819 23.0733 21.0016 23.0735 20.8136C23.0735 19.9395 22.5623 19.1556 21.8036 18.6136C21.1309 18.133 20.2367 17.8366 19.2121 17.772C18.6079 16.7831 17.624 16.145 16.5397 15.9337C16.7751 14.6046 17.1074 13.5543 17.5363 12.6925C18.1271 12.8715 18.7123 13.0175 19.2934 13.0175C20.6205 13.0175 21.6595 12.7588 22.4754 12.2644C23.2913 11.77 23.8465 11.0528 24.2547 10.271C25.0709 8.70747 25.4145 6.85105 26.307 5.06593C26.4184 4.84362 26.4052 4.57929 26.2723 4.36916C26.1393 4.15904 25.9059 4.03413 25.6574 4.03973L25.6575 4.04004ZM24.5647 5.50917C23.9115 7.09994 23.5417 8.57582 22.9996 9.61406C22.6677 10.2498 22.2932 10.7139 21.7446 11.0463C21.196 11.3787 20.4399 11.6 19.2934 11.6C19.0622 11.6 18.7201 11.5276 18.3262 11.4228C18.4297 11.2866 18.5338 11.1513 18.6438 11.0242C19.6859 9.81789 21.0641 8.96705 22.7338 7.95291C22.9236 7.84497 23.053 7.65562 23.0848 7.43957C23.1164 7.22353 23.0469 7.005 22.8961 6.84713C22.7453 6.68926 22.5301 6.60966 22.3129 6.63142C22.1997 6.64229 22.0909 6.68019 21.9955 6.74216C20.5466 7.62215 19.2117 8.43244 18.0826 9.55488C18.4045 8.0452 19.1517 7.14492 20.1645 6.55016C21.3425 5.8585 22.935 5.60423 24.5647 5.50914L24.5647 5.50917ZM7.13369 6.7791C8.8268 6.94126 10.3759 7.10655 11.4233 7.67229C12.0917 8.03336 12.6095 8.5241 12.9959 9.34828C13.1917 9.76603 13.3377 10.301 13.4389 10.9356C12.4437 9.93101 11.2712 9.09895 9.94675 8.37366C9.82332 8.30428 9.68193 8.27347 9.54069 8.28517C9.33421 8.30049 9.14469 8.40563 9.02208 8.57257C8.89947 8.7395 8.85614 8.95176 8.90327 9.15349C8.95056 9.3552 9.08355 9.52625 9.26763 9.62152C10.8411 10.4829 12.1189 11.4217 13.1067 12.641C12.7464 12.7304 12.4198 12.7813 12.1026 12.7813C10.9588 12.7813 10.2633 12.554 9.777 12.2201C9.2907 11.8864 8.96983 11.4108 8.677 10.751C8.21872 9.71873 7.88548 8.27646 7.13387 6.77914L7.13369 6.7791ZM15.7496 17.2699C16.8027 17.2699 17.7394 17.7822 18.1711 18.7392C18.227 18.8647 18.3181 18.9714 18.4335 19.046C18.5488 19.1207 18.6835 19.1604 18.8209 19.1599C19.7528 19.1599 20.4951 19.4213 20.9766 19.7654C21.1289 19.874 21.2109 19.9903 21.3088 20.105H10.1903C10.2882 19.9903 10.3703 19.874 10.5225 19.7654C11.0041 19.4213 11.7463 19.1599 12.6782 19.1599C12.8157 19.1604 12.9503 19.1207 13.0657 19.046C13.181 18.9714 13.2722 18.8647 13.328 18.7392C13.7598 17.7822 14.6965 17.2699 15.7495 17.2699H15.7496Z" fill="#74FA6D"/>
</svg>
